<?xml version="1.0" standalone="no"?>
<!DOCTYPE svg PUBLIC "-//W3C//DTD SVG 20010904//EN"
 "http://www.w3.org/TR/2001/REC-SVG-20010904/DTD/svg10.dtd">
<svg version="1.0" xmlns="http://www.w3.org/2000/svg"
 width="2386.000000pt" height="1491.000000pt" viewBox="0 0 2386.000000 1491.000000"
 preserveAspectRatio="xMidYMid meet">

<g transform="translate(0.000000,1491.000000) scale(0.100000,-0.100000)"
fill="#ffffff" stroke="none">
<path d="M11742 11408 c-18 -22 -32 -91 -32 -155 l0 -61 -44 -26 c-26 -15 -50
-39 -60 -60 -24 -52 -21 -133 9 -192 14 -27 25 -55 25 -61 0 -7 4 -13 9 -13
11 0 10 -26 -5 -255 -12 -182 -16 -249 -29 -520 -11 -213 -54 -532 -94 -692
-44 -174 -45 -177 -78 -184 -32 -6 -93 -45 -93 -58 0 -17 40 -58 74 -76 20
-11 36 -27 36 -36 0 -21 -145 -528 -161 -563 -7 -14 -20 -26 -29 -26 -14 0
-18 -14 -23 -84 -4 -63 -15 -108 -42 -177 -20 -52 -48 -130 -62 -174 -14 -44
-38 -105 -53 -135 -15 -30 -39 -86 -53 -125 -26 -73 -163 -353 -228 -466 -21
-36 -61 -113 -90 -170 -29 -57 -77 -142 -108 -188 -31 -47 -62 -96 -70 -110
-26 -49 -135 -211 -142 -211 -15 0 -16 125 -8 803 5 392 6 750 4 797 -3 47
-10 181 -16 298 -11 213 -11 214 -40 256 -28 39 -32 76 -8 76 15 0 10 43 -8
62 -17 19 -17 21 0 50 28 49 22 83 -23 132 -29 31 -40 52 -40 74 0 28 -21 62
-38 62 -28 -1 -52 -47 -52 -99 0 -49 4 -48 -184 -55 -114 -4 -142 -7 -155 -22
-13 -13 -13 -15 -1 -8 13 7 13 6 1 -9 -14 -18 -12 -93 8 -265 4 -35 3 -66 -1
-68 -4 -3 -8 -89 -8 -191 l0 -186 -116 6 c-64 4 -119 9 -122 11 -18 19 8 469
32 540 20 62 21 120 1 136 -13 11 -35 10 -118 -3 -56 -10 -144 -17 -194 -17
-85 0 -93 2 -93 19 0 28 -58 74 -84 67 -12 -3 -24 -6 -28 -6 -12 0 -9 -30 2
-30 24 0 8 -60 -30 -113 -51 -70 -53 -111 -10 -147 37 -31 37 -41 0 -62 -36
-20 -38 -47 -10 -93 20 -32 20 -32 0 -50 -17 -15 -19 -32 -20 -144 0 -69 4
-245 10 -391 18 -457 39 -1415 31 -1423 -5 -5 -32 -7 -62 -5 -52 3 -54 4 -57
33 -2 17 -8 34 -13 40 -5 5 -9 201 -9 470 0 253 -4 532 -10 620 -5 88 -14 286
-20 440 -6 186 -15 302 -25 345 -9 36 -18 83 -22 105 -5 36 -36 98 -180 359
-24 43 -42 80 -41 80 42 25 58 40 58 56 0 46 -78 276 -118 348 -31 55 -83 10
-127 -110 -13 -35 -35 -89 -49 -121 -14 -31 -29 -75 -32 -96 -6 -37 -4 -40 26
-56 l31 -16 -26 -35 c-14 -19 -28 -43 -30 -53 -2 -10 -12 -36 -23 -57 -28 -56
-68 -176 -98 -295 -26 -108 -42 -293 -39 -459 1 -47 5 -425 10 -841 8 -701 7
-756 -9 -762 -31 -12 -108 -19 -141 -13 -26 5 -36 14 -44 38 -15 41 -14 131 1
146 9 9 8 16 -4 29 -12 14 -17 57 -23 209 -4 105 -4 222 0 260 7 64 10 72 49
109 23 22 41 46 40 53 -1 6 -2 16 -3 20 -2 13 -48 32 -75 32 -21 0 -24 7 -36
76 -7 45 -11 139 -9 225 3 108 0 152 -9 161 -19 19 -14 44 13 69 13 13 25 31
25 40 0 20 -27 86 -37 92 -5 2 -64 -2 -133 -9 -134 -14 -240 -17 -240 -8 0 3
4 14 10 24 7 14 6 23 -6 34 -8 9 -19 16 -24 16 -5 0 -9 24 -8 53 1 69 -41 486
-52 514 -7 16 -21 23 -55 28 -45 7 -45 7 -61 64 -40 148 -130 317 -186 350
-39 22 -52 95 -44 227 6 86 5 104 -9 118 -9 9 -25 16 -35 16 -20 0 -23 13 -35
155 -8 83 -53 373 -61 386 -14 24 -32 6 -37 -38 -9 -69 -20 -291 -21 -412 l-1
-105 -40 -20 c-49 -26 -53 -40 -54 -186 -2 -139 -6 -160 -35 -160 -36 0 -86
-45 -148 -132 -49 -70 -71 -113 -103 -207 -4 -11 -8 -11 -20 -1 -12 10 -18 10
-30 0 -12 -10 -15 -38 -15 -135 l0 -122 -39 -7 c-25 -4 -42 -12 -45 -24 -3 -9
-26 -115 -50 -236 l-45 -219 25 -43 26 -44 -23 -19 c-27 -22 -84 -37 -179 -46
-38 -4 -79 -15 -98 -27 -18 -11 -41 -18 -51 -15 -33 8 -45 -7 -28 -34 13 -19
18 -81 27 -294 6 -148 15 -317 20 -375 7 -70 7 -153 0 -250 -6 -80 -12 -194
-13 -255 l-2 -110 -37 -3 c-20 -2 -47 2 -59 8 -21 12 -21 16 -19 263 0 139 -3
293 -9 342 -5 50 -10 140 -11 200 0 61 -7 139 -15 175 -8 36 -14 97 -15 136 0
62 5 80 40 153 39 81 50 131 29 131 -5 0 -7 5 -4 10 10 17 -53 69 -92 76 -20
4 -70 3 -112 -2 -42 -5 -120 -9 -175 -9 l-99 0 -23 -35 c-32 -46 -48 -53 -81
-37 -54 26 -73 6 -73 -83 0 -25 -7 -55 -15 -67 -13 -18 -15 -110 -17 -640 -3
-554 -5 -615 -18 -593 -13 22 -15 112 -15 645 0 341 3 648 7 683 5 40 4 61 -2
57 -5 -3 -7 1 -4 9 4 10 -7 21 -35 35 -30 16 -48 35 -73 83 -42 80 -62 85
-110 28 -26 -29 -43 -67 -64 -136 -16 -57 -39 -111 -56 -131 -39 -49 -42 -82
-32 -298 19 -410 2 -690 -59 -931 -20 -82 -24 -89 -49 -92 -18 -2 -31 4 -42
20 -14 20 -16 70 -16 403 1 368 4 434 34 596 15 89 7 169 -22 209 -43 57 -192
22 -250 -59 l-26 -36 -85 -1 c-93 -1 -185 -16 -206 -34 -29 -24 -38 -112 -31
-321 22 -708 25 -669 -49 -745 l-41 -43 -1049 -1 c-578 0 -1060 0 -1072 0 -14
0 -23 -6 -23 -15 0 -13 137 -15 1078 -17 l1077 -3 47 45 c73 68 83 104 83 295
0 88 -5 289 -9 447 -8 261 -8 289 8 312 11 17 26 26 44 26 15 0 45 7 67 15 44
16 103 19 123 7 9 -7 9 -18 -4 -55 -15 -44 -15 -49 0 -72 19 -29 47 -32 70 -9
19 18 20 44 5 97 -9 34 -8 43 12 72 36 52 95 85 151 85 38 0 49 -4 59 -22 18
-33 16 -132 -4 -233 -16 -75 -19 -158 -24 -505 -4 -410 -4 -415 17 -448 16
-26 24 -31 34 -23 11 9 15 7 19 -10 5 -18 11 -20 34 -15 44 11 54 27 78 129
59 245 77 513 61 944 l-9 232 31 36 c29 32 61 114 65 165 1 11 4 20 7 20 3 0
11 15 18 34 14 38 53 77 59 60 19 -53 54 -103 91 -128 l43 -28 -8 -67 c-4 -36
-8 -334 -8 -661 0 -626 3 -667 45 -705 15 -14 21 -14 39 -3 21 13 21 15 22
625 1 337 2 616 3 621 1 4 10 21 19 39 10 19 17 54 17 85 0 40 3 49 12 40 7
-7 29 -12 49 -12 31 0 43 6 68 37 l31 37 82 1 c46 1 122 5 169 9 97 10 130 5
159 -24 28 -28 25 -55 -17 -139 -45 -91 -54 -179 -29 -284 9 -38 16 -110 16
-160 0 -51 7 -173 15 -272 8 -99 15 -271 15 -383 l0 -202 28 -12 c46 -18 126
-22 139 -6 8 9 16 107 23 268 6 140 15 282 19 316 5 43 3 67 -5 80 -9 13 -16
110 -23 301 -6 155 -14 295 -17 311 -5 25 -1 32 32 51 25 15 66 26 118 31 45
5 95 13 111 18 33 10 110 59 110 70 0 4 -13 30 -27 59 l-28 51 45 216 c25 119
45 218 45 220 0 2 10 1 23 -1 12 -2 33 0 46 5 24 9 25 11 23 118 -1 76 1 102
8 87 14 -35 37 -18 45 33 11 75 41 148 91 225 56 84 100 128 129 129 11 0 33
14 48 31 26 30 27 34 27 163 0 72 4 136 8 142 4 7 24 19 45 27 l37 16 0 108
c0 134 11 274 20 268 8 -5 15 -60 31 -225 12 -133 13 -136 49 -144 l30 -5 0
-136 c0 -146 12 -198 48 -209 44 -14 142 -192 175 -321 l24 -89 47 -12 c26 -7
49 -14 51 -16 2 -2 16 -114 30 -250 19 -188 23 -252 15 -274 -11 -28 -1 -45
34 -57 8 -3 7 -11 -1 -29 -10 -22 -9 -29 8 -44 16 -15 32 -16 116 -10 54 4
137 9 185 13 l87 6 6 -26 c5 -20 1 -34 -19 -58 -30 -35 -32 -55 -10 -87 12
-18 13 -26 4 -37 -8 -9 -9 -25 -5 -42 4 -16 9 -86 11 -158 2 -71 7 -159 11
-195 l8 -65 48 3 c26 2 47 0 47 -4 0 -5 -17 -25 -37 -47 l-38 -38 -5 -172 c-3
-95 -2 -221 3 -282 4 -60 9 -146 10 -190 5 -102 17 -132 63 -151 50 -21 166
-10 201 20 l24 21 -1 425 c0 234 -5 538 -9 675 -10 298 -4 775 10 863 20 126
79 305 141 428 62 123 68 154 28 154 -30 0 -35 25 -15 73 10 23 35 87 56 142
54 138 61 143 94 69 38 -84 76 -203 78 -244 2 -28 -3 -36 -25 -48 -16 -7 -28
-20 -28 -29 0 -14 109 -222 170 -323 15 -25 30 -59 33 -75 3 -17 17 -68 32
-115 24 -77 27 -109 36 -330 5 -135 14 -337 20 -450 6 -113 13 -430 15 -704 4
-589 -7 -541 123 -541 44 0 83 3 86 7 14 14 25 102 15 112 -6 6 -10 75 -10
166 0 85 -7 371 -16 635 -8 264 -17 608 -20 764 -5 281 -5 284 17 307 l22 23
-22 36 c-28 47 -27 57 9 77 41 23 39 56 -5 97 -19 17 -35 35 -35 40 0 4 13 26
29 48 39 55 61 98 61 123 0 29 16 17 23 -18 5 -23 13 -31 38 -36 53 -10 158
-7 263 9 55 8 103 15 108 15 22 0 0 -127 -28 -154 -12 -12 -12 -23 -3 -63 11
-52 4 -199 -13 -243 -14 -37 0 -185 20 -210 15 -18 31 -20 137 -23 170 -3 165
-9 165 193 0 111 -4 160 -12 169 -10 11 -10 13 0 7 6 -4 12 -3 12 2 0 5 9 12
20 15 25 6 25 21 1 44 -17 15 -20 39 -27 159 l-7 141 33 6 c18 4 88 7 156 7
143 0 164 10 164 78 1 33 2 35 12 17 6 -11 28 -39 50 -62 21 -24 38 -46 38
-50 0 -5 -9 -21 -20 -38 -24 -36 -25 -63 -4 -86 13 -15 14 -21 1 -46 -17 -34
-12 -59 19 -96 30 -35 30 -42 43 -352 13 -293 13 -660 2 -1260 -8 -465 -5
-537 24 -559 11 -9 25 -14 30 -12 14 4 77 88 125 166 58 94 61 99 104 164 85
129 389 721 442 857 18 48 43 107 55 131 12 23 39 93 59 153 21 61 46 134 56
162 l19 53 83 0 c45 0 82 -3 82 -6 0 -36 -160 -473 -253 -694 -57 -135 -168
-358 -241 -484 -73 -126 -196 -371 -196 -390 0 -44 25 -12 85 106 37 73 91
171 119 218 29 47 77 126 106 175 156 263 381 483 558 548 34 12 93 22 144 25
142 7 263 -41 408 -162 82 -69 101 -95 225 -311 170 -297 199 -356 265 -545
44 -123 56 -134 140 -124 30 4 60 7 65 6 88 -10 340 -12 364 -4 28 10 31 9 31
-9 0 -23 25 -26 34 -3 3 9 6 215 6 459 0 377 2 444 14 448 10 4 13 16 10 39
-3 27 2 40 31 72 l35 39 0 -29 c0 -37 9 -50 42 -63 24 -9 32 -6 68 24 23 19
45 35 49 35 4 0 17 17 29 38 26 46 49 67 83 75 14 4 54 33 89 66 71 67 61 68
142 -6 37 -34 55 -43 82 -43 41 0 60 -26 69 -100 7 -57 34 -80 94 -80 40 0 49
5 98 53 42 40 55 61 55 82 0 26 2 28 15 14 12 -12 16 -51 19 -195 4 -167 -7
-580 -20 -810 -8 -119 -2 -129 80 -139 90 -12 93 -7 100 142 3 71 9 373 12
673 l6 546 -37 44 c-61 73 -66 104 -21 134 18 11 23 24 23 58 1 24 -3 48 -8
54 -6 8 1 20 21 37 40 34 38 59 -7 96 l-38 31 210 0 c413 1 1330 18 1347 25
30 12 33 -22 6 -58 -43 -57 -42 -63 12 -116 46 -44 50 -53 50 -94 0 -25 3 -52
6 -61 4 -11 -5 -22 -30 -37 -28 -16 -36 -27 -36 -49 0 -16 -4 -32 -10 -35 -11
-7 -14 -48 -3 -59 4 -4 6 -26 4 -49 -2 -39 16 -367 39 -702 5 -77 10 -183 12
-235 l2 -94 -59 -18 c-107 -31 -285 -70 -299 -65 -8 3 -21 36 -29 74 -14 64
-20 124 -47 493 -22 295 -49 384 -146 486 -97 101 -190 133 -298 102 -62 -17
-149 -88 -174 -142 -72 -151 -68 -120 -102 -821 -6 -121 -12 -253 -14 -292 -3
-40 0 -73 5 -73 27 0 459 65 607 91 l174 31 26 -25 c31 -28 49 -35 112 -47 25
-4 78 -15 119 -24 58 -13 81 -14 107 -6 52 17 64 43 64 133 0 53 4 79 13 82
86 30 127 48 127 56 0 6 14 30 31 55 112 164 169 438 155 749 -3 77 -10 230
-15 340 -6 115 -6 204 -1 210 5 6 5 16 1 23 -10 17 4 119 19 138 13 14 75 19
104 8 9 -3 16 -12 16 -20 0 -8 9 -14 20 -14 17 0 20 -7 20 -44 0 -44 19 -74
40 -61 6 3 17 22 25 41 12 29 19 34 35 29 11 -3 33 0 48 8 15 7 44 12 64 9 33
-4 97 19 99 36 0 4 1 52 3 107 3 126 25 186 106 289 55 69 106 113 217 184 37
24 43 32 44 67 1 22 1 49 0 59 -1 11 5 26 12 35 8 9 19 31 27 49 14 35 28 41
36 15 3 -10 10 -26 15 -36 6 -11 6 -25 -2 -39 -9 -17 -7 -28 9 -57 11 -20 32
-94 47 -166 31 -148 42 -176 82 -194 24 -11 29 -10 44 8 10 12 22 56 28 108 7
49 18 102 26 118 8 17 24 59 36 95 30 89 99 224 147 288 22 30 63 69 92 89 28
19 54 41 57 48 2 8 34 33 69 55 88 56 151 103 158 117 3 7 -2 19 -10 28 -8 8
-12 20 -9 26 4 5 -1 19 -10 29 -16 17 -16 23 -2 62 8 24 25 76 37 116 13 39
26 72 29 72 4 0 21 -30 39 -67 70 -148 79 -208 35 -250 -32 -29 -37 -22 62
-86 117 -75 242 -308 295 -549 5 -26 14 -95 19 -155 12 -138 15 -145 55 -141
28 3 33 9 59 73 50 123 59 157 53 194 -4 24 -1 40 10 52 12 13 12 22 4 41 -10
21 -6 32 30 86 22 34 43 62 45 62 3 0 19 -28 35 -62 30 -62 30 -63 13 -95 -16
-31 -16 -35 -1 -60 9 -17 14 -39 11 -55 -3 -15 -2 -36 2 -45 5 -10 7 -24 6
-30 -4 -26 31 -73 103 -137 131 -118 185 -230 195 -411 l6 -110 33 -3 c26 -3
39 3 61 27 16 17 34 31 40 31 6 0 11 4 11 9 0 5 12 12 28 16 15 3 36 18 47 32
20 24 22 24 50 10 17 -9 49 -20 71 -26 23 -6 52 -20 66 -30 38 -30 75 -109 94
-201 20 -95 20 -78 9 -930 l-6 -535 1313 3 c722 1 1319 4 1326 7 60 22 -84 25
-1299 25 l-1301 0 7 538 c10 753 9 794 -15 915 -31 152 -79 211 -207 255 -102
35 -112 37 -119 18 -6 -17 -71 -51 -109 -58 -13 -2 -21 -12 -23 -31 -2 -19 -9
-27 -23 -27 -16 0 -19 7 -19 48 0 87 -21 176 -61 262 -35 74 -53 97 -140 181
-74 72 -99 103 -99 122 0 14 -4 27 -9 29 -6 2 -6 18 -2 38 5 24 3 44 -7 64
-12 25 -12 32 4 62 16 30 17 37 4 57 -7 12 -20 36 -27 52 -33 72 -39 80 -64
83 -23 3 -33 -8 -78 -74 -42 -62 -52 -83 -48 -108 2 -17 -1 -39 -7 -48 -7 -13
-7 -26 0 -46 6 -15 7 -36 3 -47 -5 -11 -22 -57 -39 -103 -18 -45 -35 -80 -39
-77 -5 2 -11 55 -15 117 -12 182 -93 422 -192 569 -48 71 -120 145 -156 160
-33 14 -32 9 -11 54 15 31 15 43 5 92 -10 48 -92 243 -112 266 -13 15 -41 -6
-60 -44 -17 -32 -30 -72 -77 -231 -3 -10 -2 -26 2 -35 5 -10 7 -28 6 -40 -1
-13 2 -23 8 -23 22 0 10 -16 -31 -42 -127 -82 -195 -136 -280 -223 -90 -92
-222 -385 -244 -538 -7 -49 -15 -91 -18 -95 -16 -15 -38 32 -52 109 -25 137
-34 172 -53 212 -10 20 -15 40 -10 43 14 8 10 50 -6 64 -8 7 -15 21 -15 31 0
23 -34 59 -55 59 -8 0 -24 -17 -35 -37 -11 -21 -30 -53 -41 -72 -11 -18 -19
-43 -18 -55 5 -66 2 -71 -100 -147 -185 -140 -266 -276 -266 -451 0 -79 -2
-88 -22 -99 -12 -6 -33 -9 -47 -5 -16 4 -38 0 -56 -9 -17 -9 -40 -13 -54 -9
-13 3 -27 1 -30 -5 -11 -17 -23 -13 -28 7 -8 28 -100 72 -151 72 -93 0 -111
-45 -110 -275 0 -88 6 -238 13 -333 32 -433 -21 -731 -162 -914 -19 -24 -44
-42 -75 -52 -26 -9 -48 -16 -50 -16 -2 0 -3 35 -3 78 0 42 -7 169 -14 282 -33
468 -40 640 -28 652 17 17 15 53 -3 68 -14 12 -14 15 1 31 8 9 14 26 12 37 -2
12 9 29 30 47 33 28 34 29 27 89 -9 73 -21 100 -69 145 l-35 34 30 35 c25 28
30 41 25 66 -8 40 -33 59 -66 50 -14 -4 -380 -12 -815 -19 -434 -6 -791 -12
-792 -13 -2 -1 -3 -11 -3 -22 0 -13 17 -32 45 -52 48 -34 47 -33 3 -83 -13
-16 -17 -34 -14 -73 3 -47 1 -55 -20 -69 -13 -8 -24 -24 -24 -34 0 -30 26 -87
60 -129 l30 -38 -1 -474 c-1 -260 -7 -555 -12 -655 l-10 -183 -26 0 c-70 1
-73 4 -68 99 16 289 25 613 21 789 -4 175 -7 208 -23 241 -40 78 -81 81 -81 6
0 -42 -4 -49 -52 -95 -29 -27 -60 -50 -68 -50 -30 0 -60 30 -60 61 0 71 -47
129 -105 129 -23 0 -42 13 -87 59 -33 33 -58 68 -58 79 0 46 -31 32 -43 -19
-9 -38 -94 -117 -155 -144 -36 -17 -58 -34 -70 -56 -9 -18 -37 -52 -62 -75
-53 -50 -65 -46 -75 26 -8 61 -27 80 -55 55 -11 -10 -24 -32 -30 -50 -6 -19
-22 -41 -36 -49 -17 -12 -24 -25 -24 -49 0 -18 -4 -37 -9 -42 -5 -6 -11 -190
-14 -410 -2 -220 -9 -411 -14 -424 -9 -22 -17 -14 -129 120 -65 79 -129 155
-141 169 -77 86 -168 210 -228 309 -78 131 -197 358 -219 417 -8 21 -44 107
-81 189 -37 83 -81 188 -100 235 -18 47 -36 93 -40 103 -6 14 -2 17 23 17 37
0 42 12 42 100 0 100 0 100 -81 100 -38 0 -69 2 -69 4 0 2 -32 93 -71 202 -90
251 -139 415 -144 479 -2 28 -11 83 -19 122 -22 102 -53 357 -61 493 -3 63
-15 189 -25 280 -25 211 -27 611 -4 775 24 177 27 237 15 282 -14 51 -55 103
-82 103 -25 0 -24 -12 2 -36 51 -45 61 -127 33 -294 -10 -61 -18 -188 -21
-355 -4 -222 -2 -288 16 -450 12 -104 26 -255 31 -335 10 -153 32 -329 55
-445 8 -38 13 -71 11 -72 -1 -1 -20 6 -41 17 -33 17 -58 20 -155 19 -63 0
-139 -4 -168 -8 -39 -6 -55 -4 -59 5 -2 6 5 43 16 80 49 164 92 458 110 754 6
96 16 249 22 340 18 294 22 440 12 440 -5 0 -7 16 -5 35 3 21 0 35 -7 35 -20
0 -41 59 -41 115 0 77 17 106 85 140 16 8 22 25 27 80 16 155 31 175 41 56 6
-76 23 -119 38 -104 9 9 -1 139 -17 211 -5 25 -44 31 -62 10z m172 -2254 l39
-27 -29 -15 c-22 -12 -83 -18 -251 -26 -209 -9 -224 -8 -243 9 -22 19 -26 40
-10 50 24 15 197 33 320 34 131 1 137 0 174 -25z m52 -101 c14 -63 81 -269
140 -436 35 -98 64 -181 64 -183 0 -2 -60 -4 -134 -4 l-134 0 -28 83 c-28 84
-74 189 -97 219 -20 25 -67 28 -67 4 0 -10 -20 -19 -57 -27 -84 -18 -91 -23
-108 -87 -9 -31 -25 -87 -36 -124 l-20 -68 -80 0 c-73 0 -80 2 -74 18 13 28
165 562 165 576 0 14 117 26 264 26 45 0 104 7 131 14 67 19 64 20 71 -11z
m-187 -400 c19 -39 81 -207 81 -220 0 -2 -74 -3 -165 -3 -91 0 -165 3 -165 6
0 3 9 36 20 72 10 37 24 86 30 108 10 40 11 42 68 53 31 6 64 16 72 21 26 17
35 11 59 -37z m-320 -325 l-14 -53 -83 -3 c-76 -3 -83 -1 -78 15 2 10 10 37
16 60 l11 42 72 3 c39 2 76 0 81 -4 5 -4 3 -29 -5 -60z m861 1 c0 -60 0 -60
-27 -57 -23 2 -30 12 -45 53 -10 28 -18 53 -18 57 0 7 69 16 83 10 4 -2 7 -30
7 -63z m-427 8 c9 -30 17 -57 17 -60 0 -4 -97 -7 -216 -7 -196 0 -216 2 -210
16 4 9 11 36 17 60 l11 44 182 0 182 0 17 -53z m315 -7 l21 -60 -138 0 -137 0
-17 53 c-9 30 -17 57 -17 60 0 4 60 7 133 7 l133 0 22 -60z m-243 -202 c38
-104 133 -322 199 -458 20 -40 35 -75 33 -77 -2 -1 -30 17 -63 41 -74 53 -191
110 -263 126 -69 16 -188 8 -263 -19 -111 -39 -197 -98 -325 -227 -67 -67
-118 -112 -113 -101 4 12 37 94 73 182 79 195 191 499 212 578 l16 57 228 0
228 0 38 -102z m303 55 c11 -27 23 -59 27 -73 29 -95 271 -622 345 -750 24
-41 61 -108 82 -147 22 -40 44 -76 51 -80 7 -5 26 -26 42 -48 25 -34 204 -251
336 -407 21 -26 39 -49 39 -52 0 -13 -114 -5 -129 8 -9 7 -38 20 -64 29 -75
25 -187 98 -295 192 -84 73 -105 98 -146 173 -27 48 -79 141 -116 207 -38 66
-104 188 -149 270 -44 83 -84 155 -88 160 -4 6 -9 17 -11 24 -1 7 -36 85 -76
174 -63 139 -146 344 -146 362 0 3 62 5 139 5 l139 0 20 -47z m3057 -353 c68
-33 149 -122 179 -198 35 -89 42 -138 66 -467 11 -154 27 -314 36 -355 8 -41
16 -82 17 -90 2 -11 -28 -20 -123 -37 -155 -29 -526 -83 -564 -83 l-29 0 6
168 c11 321 27 638 38 732 28 254 207 411 374 330z m-10895 -255 c0 -14 -4
-25 -10 -25 -11 0 -14 33 -3 43 11 11 13 8 13 -18z m8295 -790 c33 -28 97 -74
143 -100 45 -27 82 -52 82 -57 0 -11 -132 3 -149 15 -10 9 -16 7 -26 -7 -8
-10 -23 -16 -34 -14 -17 2 -29 25 -60 115 -22 62 -34 110 -28 106 7 -4 39 -30
72 -58z m3315 -95 c0 -67 -1 -71 -26 -80 -44 -17 -316 41 -304 65 5 9 274 82
313 84 15 1 17 -9 17 -69z"/>
</g>
</svg>
