<svg id="svg" version="1.1" xmlns="http://www.w3.org/2000/svg" xmlns:xlink="http://www.w3.org/1999/xlink" width="400" height="400" viewBox="0, 0, 400,400"><g id="svgg"><path id="path0" d="M202.400 3.629 C 202.400 7.298,202.011 8.400,200.717 8.400 C 200.420 8.400,199.917 8.760,199.600 9.200 C 199.283 9.640,198.703 10.000,198.312 10.000 C 197.920 10.000,197.600 10.180,197.600 10.400 C 197.600 10.620,196.970 10.800,196.200 10.800 C 195.430 10.800,194.800 10.980,194.800 11.200 C 194.800 11.420,194.512 11.600,194.160 11.600 C 193.809 11.600,193.017 12.140,192.400 12.800 C 191.783 13.460,190.991 14.000,190.640 14.000 C 190.288 14.000,190.000 14.180,190.000 14.400 C 190.000 14.620,189.640 14.800,189.200 14.800 C 188.756 14.800,188.400 15.067,188.400 15.400 C 188.400 15.800,188.000 16.000,187.200 16.000 C 186.540 16.000,186.000 16.180,186.000 16.400 C 186.000 16.620,185.370 16.800,184.600 16.800 C 183.830 16.800,183.200 16.980,183.200 17.200 C 183.200 17.420,182.480 17.600,181.600 17.600 C 180.720 17.600,180.000 17.780,180.000 18.000 C 180.000 18.220,179.724 18.400,179.387 18.400 C 178.591 18.400,176.000 20.991,176.000 21.787 C 176.000 22.124,175.730 22.400,175.400 22.400 C 175.070 22.400,174.800 22.720,174.800 23.112 C 174.800 23.503,174.440 24.083,174.000 24.400 C 173.560 24.717,173.200 25.123,173.200 25.302 C 173.200 25.880,170.446 28.400,169.813 28.400 C 169.476 28.400,169.200 28.580,169.200 28.800 C 169.200 29.020,168.912 29.200,168.560 29.200 C 168.209 29.200,167.417 29.740,166.800 30.400 C 166.183 31.060,165.481 31.600,165.240 31.600 C 164.998 31.600,164.800 31.960,164.800 32.400 C 164.800 32.840,164.620 33.200,164.400 33.200 C 164.180 33.200,164.000 34.010,164.000 35.000 C 164.000 35.990,163.820 36.800,163.600 36.800 C 163.380 36.800,163.200 37.340,163.200 38.000 C 163.200 38.660,163.020 39.200,162.800 39.200 C 162.580 39.200,162.400 39.740,162.400 40.400 C 162.400 41.060,162.220 41.600,162.000 41.600 C 161.780 41.600,161.600 41.960,161.600 42.400 C 161.600 42.840,161.420 43.200,161.200 43.200 C 160.980 43.200,160.800 43.560,160.800 44.000 C 160.800 44.440,160.620 44.800,160.400 44.800 C 160.180 44.800,160.000 45.250,160.000 45.800 C 160.000 46.350,159.820 46.800,159.600 46.800 C 159.380 46.800,159.200 47.160,159.200 47.600 C 159.200 48.040,159.020 48.400,158.800 48.400 C 158.580 48.400,158.400 48.940,158.400 49.600 C 158.400 50.260,158.220 50.800,158.000 50.800 C 157.780 50.800,157.600 51.160,157.600 51.600 C 157.600 52.040,157.420 52.400,157.200 52.400 C 156.980 52.400,156.800 52.940,156.800 53.600 C 156.800 54.260,156.620 54.800,156.400 54.800 C 156.180 54.800,156.000 55.070,156.000 55.400 C 156.000 55.730,155.730 56.000,155.400 56.000 C 155.070 56.000,154.800 56.320,154.800 56.712 C 154.800 57.103,154.440 57.683,154.000 58.000 C 153.260 58.533,153.200 59.035,153.200 64.688 C 153.200 68.496,153.049 70.800,152.800 70.800 C 152.538 70.800,152.400 79.133,152.400 95.000 C 152.400 110.867,152.262 119.200,152.000 119.200 C 151.771 119.200,151.600 120.400,151.600 122.000 C 151.600 123.600,151.429 124.800,151.200 124.800 C 150.980 124.800,150.800 125.570,150.800 126.512 C 150.800 127.765,150.586 128.378,150.000 128.800 C 149.560 129.117,149.200 129.613,149.200 129.902 C 149.200 130.729,146.513 133.200,145.613 133.200 C 145.166 133.200,144.800 133.380,144.800 133.600 C 144.800 133.820,144.440 134.000,144.000 134.000 C 143.560 134.000,143.200 134.180,143.200 134.400 C 143.200 134.620,142.840 134.800,142.400 134.800 C 141.956 134.800,141.600 135.067,141.600 135.400 C 141.600 135.906,140.689 136.000,135.800 136.000 C 130.911 136.000,130.000 135.906,130.000 135.400 C 130.000 134.947,129.511 134.800,128.000 134.800 C 126.489 134.800,126.000 134.947,126.000 135.400 C 126.000 135.886,125.356 136.000,122.600 136.000 C 120.600 136.000,119.200 136.165,119.200 136.400 C 119.200 136.631,117.933 136.800,116.200 136.800 C 113.591 136.800,113.200 136.893,113.200 137.512 C 113.200 137.903,112.840 138.483,112.400 138.800 C 111.492 139.454,111.097 193.200,112.000 193.200 C 112.220 193.200,112.400 193.560,112.400 194.000 C 112.400 194.440,112.580 194.800,112.800 194.800 C 113.020 194.800,113.200 195.070,113.200 195.400 C 113.200 195.886,113.844 196.000,116.600 196.000 C 118.600 196.000,120.000 196.165,120.000 196.400 C 120.000 197.035,139.869 196.937,140.167 196.300 C 140.353 195.900,140.447 195.900,140.633 196.300 C 140.762 196.575,141.392 196.800,142.033 196.800 C 142.675 196.800,143.200 196.980,143.200 197.200 C 143.200 197.420,143.790 197.600,144.512 197.600 C 145.365 197.600,146.025 197.880,146.400 198.400 C 146.717 198.840,147.215 199.200,147.506 199.200 C 148.237 199.200,150.000 201.026,150.000 201.782 C 150.000 202.122,150.180 202.400,150.400 202.400 C 150.620 202.400,150.800 202.760,150.800 203.200 C 150.800 203.640,150.980 204.000,151.200 204.000 C 151.420 204.000,151.600 204.630,151.600 205.400 C 151.600 206.170,151.780 206.800,152.000 206.800 C 152.265 206.800,152.400 236.933,152.400 296.400 C 152.400 355.867,152.535 386.000,152.800 386.000 C 153.051 386.000,153.200 388.600,153.200 393.000 L 153.200 400.000 189.600 400.000 L 226.000 400.000 226.000 394.600 C 226.000 391.267,226.153 389.200,226.400 389.200 C 226.665 389.200,226.800 365.333,226.800 318.400 C 226.800 271.467,226.935 247.600,227.200 247.600 C 227.462 247.600,227.600 240.400,227.600 226.800 C 227.600 213.200,227.738 206.000,228.000 206.000 C 228.220 206.000,228.400 205.730,228.400 205.400 C 228.400 205.070,228.580 204.800,228.800 204.800 C 229.020 204.800,229.200 204.525,229.200 204.189 C 229.200 203.445,232.573 200.000,233.301 200.000 C 233.588 200.000,234.083 199.640,234.400 199.200 C 234.717 198.760,235.387 198.400,235.888 198.400 C 236.390 198.400,236.800 198.220,236.800 198.000 C 236.800 197.780,237.340 197.600,238.000 197.600 C 238.660 197.600,239.200 197.420,239.200 197.200 C 239.200 196.980,240.100 196.800,241.200 196.800 C 242.300 196.800,243.200 196.620,243.200 196.400 C 243.200 196.144,246.933 196.000,253.600 196.000 C 260.267 196.000,264.000 196.144,264.000 196.400 C 264.000 196.645,265.933 196.800,269.000 196.800 C 272.067 196.800,274.000 196.645,274.000 196.400 C 274.000 196.180,274.630 196.000,275.400 196.000 C 276.378 196.000,276.800 195.819,276.800 195.400 C 276.800 195.000,277.200 194.800,278.000 194.800 C 278.660 194.800,279.200 194.620,279.200 194.400 C 279.200 194.180,279.740 194.000,280.400 194.000 C 281.333 194.000,281.600 193.822,281.600 193.200 C 281.600 192.760,281.780 192.400,282.000 192.400 C 282.220 192.400,282.400 191.860,282.400 191.200 C 282.400 190.540,282.580 190.000,282.800 190.000 C 283.020 190.000,283.200 189.640,283.200 189.200 C 283.200 188.760,283.380 188.400,283.600 188.400 C 283.820 188.400,284.000 188.040,284.000 187.600 C 284.000 187.160,284.180 186.800,284.400 186.800 C 284.620 186.800,284.800 186.350,284.800 185.800 C 284.800 185.178,285.027 184.800,285.400 184.800 C 285.730 184.800,286.000 184.480,286.000 184.088 C 286.000 183.697,286.360 183.117,286.800 182.800 C 287.558 182.254,287.600 181.765,287.600 173.512 C 287.600 167.971,287.746 164.800,288.000 164.800 C 288.253 164.800,288.400 161.933,288.400 157.000 C 288.400 152.067,288.547 149.200,288.800 149.200 C 289.667 149.200,289.292 139.443,288.400 138.800 C 287.960 138.483,287.600 137.903,287.600 137.512 C 287.600 136.902,287.226 136.800,285.000 136.800 C 283.533 136.800,282.400 136.626,282.400 136.400 C 282.400 136.159,280.733 136.000,278.200 136.000 C 274.733 136.000,274.000 135.895,274.000 135.400 C 274.000 134.899,273.178 134.800,269.000 134.800 C 264.822 134.800,264.000 134.899,264.000 135.400 C 264.000 135.917,262.622 136.000,254.000 136.000 C 245.378 136.000,244.000 135.917,244.000 135.400 C 244.000 134.967,243.556 134.800,242.400 134.800 C 241.520 134.800,240.800 134.620,240.800 134.400 C 240.800 134.180,240.260 134.000,239.600 134.000 C 238.940 134.000,238.400 133.820,238.400 133.600 C 238.400 133.380,238.040 133.200,237.600 133.200 C 237.160 133.200,236.800 133.020,236.800 132.800 C 236.800 132.580,236.350 132.400,235.800 132.400 C 235.250 132.400,234.800 132.220,234.800 132.000 C 234.800 131.780,234.526 131.600,234.191 131.600 C 233.010 131.600,229.200 127.332,229.200 126.009 C 229.200 125.344,229.020 124.800,228.800 124.800 C 228.578 124.800,228.400 123.733,228.400 122.400 C 228.400 121.067,228.222 120.000,228.000 120.000 C 227.774 120.000,227.600 118.867,227.600 117.400 C 227.600 115.933,227.426 114.800,227.200 114.800 C 226.980 114.800,226.800 114.080,226.800 113.200 C 226.800 112.320,226.980 111.600,227.200 111.600 C 227.458 111.600,227.600 107.067,227.600 98.800 C 227.600 90.533,227.742 86.000,228.000 86.000 C 228.220 86.000,228.400 85.550,228.400 85.000 C 228.400 84.450,228.580 84.000,228.800 84.000 C 229.020 84.000,229.200 83.680,229.200 83.288 C 229.200 82.897,229.560 82.317,230.000 82.000 C 230.440 81.683,230.800 81.189,230.800 80.903 C 230.800 80.291,234.993 76.000,235.591 76.000 C 235.816 76.000,236.000 75.817,236.000 75.593 C 236.000 74.995,241.095 70.000,241.704 70.000 C 241.990 70.000,242.483 69.640,242.800 69.200 C 243.117 68.760,243.697 68.400,244.088 68.400 C 244.480 68.400,244.800 68.220,244.800 68.000 C 244.800 67.740,250.667 67.600,261.600 67.600 C 272.533 67.600,278.400 67.460,278.400 67.200 C 278.400 66.957,280.200 66.800,283.000 66.800 L 287.600 66.800 287.600 65.800 C 287.600 65.250,287.780 64.800,288.000 64.800 C 288.220 64.800,288.400 64.440,288.400 64.000 C 288.400 63.560,288.580 63.200,288.800 63.200 C 289.020 63.200,289.200 62.840,289.200 62.400 C 289.200 61.960,289.380 61.600,289.600 61.600 C 289.862 61.600,290.000 54.133,290.000 40.000 C 290.000 25.867,289.862 18.400,289.600 18.400 C 289.353 18.400,289.200 16.333,289.200 13.000 C 289.200 9.667,289.047 7.600,288.800 7.600 C 288.561 7.600,288.400 6.067,288.400 3.800 L 288.400 0.000 245.400 0.000 L 202.400 0.000 202.400 3.629 " stroke="none" fill="#c06859" fill-rule="evenodd"></path><path id="path1" d="M189.200 3.613 C 189.200 7.509,187.801 10.000,185.613 10.000 C 185.166 10.000,184.800 10.180,184.800 10.400 C 184.800 10.620,184.440 10.800,184.000 10.800 C 183.560 10.800,183.200 10.980,183.200 11.200 C 183.200 11.420,182.840 11.600,182.400 11.600 C 181.960 11.600,181.600 11.780,181.600 12.000 C 181.600 12.220,181.240 12.400,180.800 12.400 C 180.360 12.400,180.000 12.580,180.000 12.800 C 180.000 13.020,179.640 13.200,179.200 13.200 C 178.760 13.200,178.400 13.380,178.400 13.600 C 178.400 13.820,178.117 14.000,177.771 14.000 C 177.053 14.000,176.000 14.934,176.000 15.571 C 176.000 15.807,175.590 16.000,175.088 16.000 C 174.587 16.000,173.917 16.360,173.600 16.800 C 173.283 17.240,172.785 17.600,172.495 17.600 C 172.204 17.600,170.541 19.040,168.800 20.800 C 167.059 22.560,165.524 24.000,165.389 24.000 C 164.868 24.000,164.000 25.177,164.000 25.883 C 164.000 26.290,163.640 26.883,163.200 27.200 C 162.760 27.517,162.400 28.057,162.400 28.400 C 162.400 28.743,162.040 29.283,161.600 29.600 C 161.160 29.917,160.800 30.497,160.800 30.888 C 160.800 31.280,160.620 31.600,160.400 31.600 C 160.180 31.600,160.000 31.960,160.000 32.400 C 160.000 32.840,159.820 33.200,159.600 33.200 C 159.380 33.200,159.200 33.830,159.200 34.600 C 159.200 35.370,159.020 36.000,158.800 36.000 C 158.580 36.000,158.400 36.320,158.400 36.712 C 158.400 37.103,158.040 37.683,157.600 38.000 C 157.160 38.317,156.800 38.820,156.800 39.117 C 156.800 39.762,155.831 40.800,155.229 40.800 C 154.993 40.800,154.800 41.088,154.800 41.440 C 154.800 41.791,154.260 42.583,153.600 43.200 C 152.940 43.817,152.400 44.659,152.400 45.072 C 152.400 45.485,152.040 46.083,151.600 46.400 C 150.959 46.862,150.800 47.435,150.800 49.288 C 150.800 50.563,150.621 51.600,150.400 51.600 C 150.174 51.600,150.000 52.733,150.000 54.200 C 150.000 55.667,149.826 56.800,149.600 56.800 C 149.348 56.800,149.200 59.533,149.200 64.200 C 149.200 68.867,149.052 71.600,148.800 71.600 C 148.538 71.600,148.400 79.400,148.400 94.200 C 148.400 109.000,148.262 116.800,148.000 116.800 C 147.780 116.800,147.600 117.340,147.600 118.000 C 147.600 118.660,147.420 119.200,147.200 119.200 C 146.980 119.200,146.800 119.740,146.800 120.400 C 146.800 121.060,146.620 121.600,146.400 121.600 C 146.180 121.600,146.000 122.140,146.000 122.800 C 146.000 123.600,145.800 124.000,145.400 124.000 C 145.065 124.000,144.800 124.357,144.800 124.809 C 144.800 126.008,140.654 130.000,139.409 130.000 C 138.854 130.000,138.400 129.820,138.400 129.600 C 138.400 129.353,136.344 129.200,133.033 129.200 C 129.131 129.200,127.603 129.064,127.433 128.700 C 127.247 128.300,127.153 128.300,126.967 128.700 C 126.800 129.057,125.429 129.200,122.167 129.200 C 119.389 129.200,117.600 129.357,117.600 129.600 C 117.600 129.820,116.694 130.000,115.587 130.000 C 113.524 130.000,110.800 131.877,110.800 133.298 C 110.800 133.587,110.440 134.083,110.000 134.400 C 109.560 134.717,109.200 135.387,109.200 135.888 C 109.200 136.390,109.020 136.800,108.800 136.800 C 108.580 136.800,108.400 137.160,108.400 137.600 C 108.400 138.040,108.220 138.400,108.000 138.400 C 107.780 138.400,107.600 138.760,107.600 139.200 C 107.600 139.640,107.420 140.000,107.200 140.000 C 106.938 140.000,106.800 147.733,106.800 162.400 C 106.800 177.067,106.938 184.800,107.200 184.800 C 107.443 184.800,107.600 186.600,107.600 189.400 C 107.600 192.200,107.757 194.000,108.000 194.000 C 108.220 194.000,108.400 194.410,108.400 194.912 C 108.400 195.413,108.760 196.083,109.200 196.400 C 109.640 196.717,110.000 197.215,110.000 197.506 C 110.000 198.237,111.826 200.000,112.582 200.000 C 112.922 200.000,113.200 200.180,113.200 200.400 C 113.200 200.620,114.190 200.800,115.400 200.800 C 116.610 200.800,117.600 200.980,117.600 201.200 C 117.600 201.453,120.467 201.600,125.400 201.600 C 130.333 201.600,133.200 201.453,133.200 201.200 C 133.200 200.959,134.867 200.800,137.400 200.800 C 139.933 200.800,141.600 200.959,141.600 201.200 C 141.600 201.420,141.888 201.600,142.240 201.600 C 142.591 201.600,143.383 202.140,144.000 202.800 C 144.617 203.460,145.242 204.000,145.389 204.000 C 145.955 204.000,146.800 205.180,146.800 205.971 C 146.800 206.427,146.980 206.800,147.200 206.800 C 147.429 206.800,147.600 208.000,147.600 209.600 C 147.600 211.200,147.771 212.400,148.000 212.400 C 148.265 212.400,148.400 241.400,148.400 298.600 C 148.400 355.800,148.535 384.800,148.800 384.800 C 149.053 384.800,149.200 387.600,149.200 392.400 L 149.200 400.000 151.200 400.000 L 153.200 400.000 153.200 393.000 C 153.200 388.600,153.051 386.000,152.800 386.000 C 152.535 386.000,152.400 355.867,152.400 296.400 C 152.400 236.933,152.265 206.800,152.000 206.800 C 151.780 206.800,151.600 206.170,151.600 205.400 C 151.600 204.630,151.420 204.000,151.200 204.000 C 150.980 204.000,150.800 203.640,150.800 203.200 C 150.800 202.760,150.620 202.400,150.400 202.400 C 150.180 202.400,150.000 202.122,150.000 201.782 C 150.000 201.026,148.237 199.200,147.506 199.200 C 147.215 199.200,146.717 198.840,146.400 198.400 C 146.025 197.880,145.365 197.600,144.512 197.600 C 143.790 197.600,143.200 197.420,143.200 197.200 C 143.200 196.980,142.675 196.800,142.033 196.800 C 141.392 196.800,140.762 196.575,140.633 196.300 C 140.447 195.900,140.353 195.900,140.167 196.300 C 139.869 196.937,120.000 197.035,120.000 196.400 C 120.000 196.165,118.600 196.000,116.600 196.000 C 113.844 196.000,113.200 195.886,113.200 195.400 C 113.200 195.070,113.020 194.800,112.800 194.800 C 112.580 194.800,112.400 194.440,112.400 194.000 C 112.400 193.560,112.220 193.200,112.000 193.200 C 111.097 193.200,111.492 139.454,112.400 138.800 C 112.840 138.483,113.200 137.903,113.200 137.512 C 113.200 136.893,113.591 136.800,116.200 136.800 C 117.933 136.800,119.200 136.631,119.200 136.400 C 119.200 136.165,120.600 136.000,122.600 136.000 C 125.356 136.000,126.000 135.886,126.000 135.400 C 126.000 134.947,126.489 134.800,128.000 134.800 C 129.511 134.800,130.000 134.947,130.000 135.400 C 130.000 135.906,130.911 136.000,135.800 136.000 C 140.689 136.000,141.600 135.906,141.600 135.400 C 141.600 135.067,141.956 134.800,142.400 134.800 C 142.840 134.800,143.200 134.620,143.200 134.400 C 143.200 134.180,143.560 134.000,144.000 134.000 C 144.440 134.000,144.800 133.820,144.800 133.600 C 144.800 133.380,145.166 133.200,145.613 133.200 C 146.513 133.200,149.200 130.729,149.200 129.902 C 149.200 129.613,149.560 129.117,150.000 128.800 C 150.586 128.378,150.800 127.765,150.800 126.512 C 150.800 125.570,150.980 124.800,151.200 124.800 C 151.429 124.800,151.600 123.600,151.600 122.000 C 151.600 120.400,151.771 119.200,152.000 119.200 C 152.262 119.200,152.400 110.867,152.400 95.000 C 152.400 79.133,152.538 70.800,152.800 70.800 C 153.049 70.800,153.200 68.496,153.200 64.688 C 153.200 59.035,153.260 58.533,154.000 58.000 C 154.440 57.683,154.800 57.103,154.800 56.712 C 154.800 56.320,155.070 56.000,155.400 56.000 C 155.730 56.000,156.000 55.730,156.000 55.400 C 156.000 55.070,156.180 54.800,156.400 54.800 C 156.620 54.800,156.800 54.260,156.800 53.600 C 156.800 52.940,156.980 52.400,157.200 52.400 C 157.420 52.400,157.600 52.040,157.600 51.600 C 157.600 51.160,157.780 50.800,158.000 50.800 C 158.220 50.800,158.400 50.260,158.400 49.600 C 158.400 48.940,158.580 48.400,158.800 48.400 C 159.020 48.400,159.200 48.040,159.200 47.600 C 159.200 47.160,159.380 46.800,159.600 46.800 C 159.820 46.800,160.000 46.350,160.000 45.800 C 160.000 45.250,160.180 44.800,160.400 44.800 C 160.620 44.800,160.800 44.440,160.800 44.000 C 160.800 43.560,160.980 43.200,161.200 43.200 C 161.420 43.200,161.600 42.840,161.600 42.400 C 161.600 41.960,161.780 41.600,162.000 41.600 C 162.220 41.600,162.400 41.060,162.400 40.400 C 162.400 39.740,162.580 39.200,162.800 39.200 C 163.020 39.200,163.200 38.660,163.200 38.000 C 163.200 37.340,163.380 36.800,163.600 36.800 C 163.820 36.800,164.000 35.990,164.000 35.000 C 164.000 34.010,164.180 33.200,164.400 33.200 C 164.620 33.200,164.800 32.840,164.800 32.400 C 164.800 31.960,164.998 31.600,165.240 31.600 C 165.481 31.600,166.183 31.060,166.800 30.400 C 167.417 29.740,168.209 29.200,168.560 29.200 C 168.912 29.200,169.200 29.020,169.200 28.800 C 169.200 28.580,169.476 28.400,169.813 28.400 C 170.446 28.400,173.200 25.880,173.200 25.302 C 173.200 25.123,173.560 24.717,174.000 24.400 C 174.440 24.083,174.800 23.503,174.800 23.112 C 174.800 22.720,175.070 22.400,175.400 22.400 C 175.730 22.400,176.000 22.124,176.000 21.787 C 176.000 20.991,178.591 18.400,179.387 18.400 C 179.724 18.400,180.000 18.220,180.000 18.000 C 180.000 17.780,180.720 17.600,181.600 17.600 C 182.480 17.600,183.200 17.420,183.200 17.200 C 183.200 16.980,183.830 16.800,184.600 16.800 C 185.370 16.800,186.000 16.620,186.000 16.400 C 186.000 16.180,186.540 16.000,187.200 16.000 C 188.000 16.000,188.400 15.800,188.400 15.400 C 188.400 15.067,188.756 14.800,189.200 14.800 C 189.640 14.800,190.000 14.620,190.000 14.400 C 190.000 14.180,190.288 14.000,190.640 14.000 C 190.991 14.000,191.783 13.460,192.400 12.800 C 193.017 12.140,193.809 11.600,194.160 11.600 C 194.512 11.600,194.800 11.420,194.800 11.200 C 194.800 10.980,195.430 10.800,196.200 10.800 C 196.970 10.800,197.600 10.620,197.600 10.400 C 197.600 10.180,197.920 10.000,198.312 10.000 C 198.703 10.000,199.283 9.640,199.600 9.200 C 199.917 8.760,200.420 8.400,200.717 8.400 C 202.011 8.400,202.400 7.298,202.400 3.629 L 202.400 0.000 195.800 0.000 L 189.200 0.000 189.200 3.613 M288.400 3.800 C 288.400 6.067,288.561 7.600,288.800 7.600 C 289.047 7.600,289.200 9.667,289.200 13.000 C 289.200 16.333,289.353 18.400,289.600 18.400 C 289.862 18.400,290.000 25.867,290.000 40.000 C 290.000 54.133,289.862 61.600,289.600 61.600 C 289.380 61.600,289.200 61.960,289.200 62.400 C 289.200 62.840,289.020 63.200,288.800 63.200 C 288.580 63.200,288.400 63.560,288.400 64.000 C 288.400 64.440,288.220 64.800,288.000 64.800 C 287.780 64.800,287.600 65.250,287.600 65.800 L 287.600 66.800 283.000 66.800 C 280.200 66.800,278.400 66.957,278.400 67.200 C 278.400 67.460,272.533 67.600,261.600 67.600 C 250.667 67.600,244.800 67.740,244.800 68.000 C 244.800 68.220,244.480 68.400,244.088 68.400 C 243.697 68.400,243.117 68.760,242.800 69.200 C 242.483 69.640,241.990 70.000,241.704 70.000 C 241.095 70.000,236.000 74.995,236.000 75.593 C 236.000 75.817,235.816 76.000,235.591 76.000 C 234.993 76.000,230.800 80.291,230.800 80.903 C 230.800 81.189,230.440 81.683,230.000 82.000 C 229.560 82.317,229.200 82.897,229.200 83.288 C 229.200 83.680,229.020 84.000,228.800 84.000 C 228.580 84.000,228.400 84.450,228.400 85.000 C 228.400 85.550,228.220 86.000,228.000 86.000 C 227.742 86.000,227.600 90.533,227.600 98.800 C 227.600 107.067,227.458 111.600,227.200 111.600 C 226.980 111.600,226.800 112.320,226.800 113.200 C 226.800 114.080,226.980 114.800,227.200 114.800 C 227.426 114.800,227.600 115.933,227.600 117.400 C 227.600 118.867,227.774 120.000,228.000 120.000 C 228.222 120.000,228.400 121.067,228.400 122.400 C 228.400 123.733,228.578 124.800,228.800 124.800 C 229.020 124.800,229.200 125.344,229.200 126.009 C 229.200 127.332,233.010 131.600,234.191 131.600 C 234.526 131.600,234.800 131.780,234.800 132.000 C 234.800 132.220,235.250 132.400,235.800 132.400 C 236.350 132.400,236.800 132.580,236.800 132.800 C 236.800 133.020,237.160 133.200,237.600 133.200 C 238.040 133.200,238.400 133.380,238.400 133.600 C 238.400 133.820,238.940 134.000,239.600 134.000 C 240.260 134.000,240.800 134.180,240.800 134.400 C 240.800 134.620,241.520 134.800,242.400 134.800 C 243.556 134.800,244.000 134.967,244.000 135.400 C 244.000 135.917,245.378 136.000,254.000 136.000 C 262.622 136.000,264.000 135.917,264.000 135.400 C 264.000 134.899,264.822 134.800,269.000 134.800 C 273.178 134.800,274.000 134.899,274.000 135.400 C 274.000 135.895,274.733 136.000,278.200 136.000 C 280.733 136.000,282.400 136.159,282.400 136.400 C 282.400 136.626,283.533 136.800,285.000 136.800 C 287.226 136.800,287.600 136.902,287.600 137.512 C 287.600 137.903,287.960 138.483,288.400 138.800 C 289.292 139.443,289.667 149.200,288.800 149.200 C 288.547 149.200,288.400 152.067,288.400 157.000 C 288.400 161.933,288.253 164.800,288.000 164.800 C 287.746 164.800,287.600 167.971,287.600 173.512 C 287.600 181.765,287.558 182.254,286.800 182.800 C 286.360 183.117,286.000 183.697,286.000 184.088 C 286.000 184.480,285.730 184.800,285.400 184.800 C 285.027 184.800,284.800 185.178,284.800 185.800 C 284.800 186.350,284.620 186.800,284.400 186.800 C 284.180 186.800,284.000 187.160,284.000 187.600 C 284.000 188.040,283.820 188.400,283.600 188.400 C 283.380 188.400,283.200 188.760,283.200 189.200 C 283.200 189.640,283.020 190.000,282.800 190.000 C 282.580 190.000,282.400 190.540,282.400 191.200 C 282.400 191.860,282.220 192.400,282.000 192.400 C 281.780 192.400,281.600 192.760,281.600 193.200 C 281.600 193.822,281.333 194.000,280.400 194.000 C 279.740 194.000,279.200 194.180,279.200 194.400 C 279.200 194.620,278.660 194.800,278.000 194.800 C 277.200 194.800,276.800 195.000,276.800 195.400 C 276.800 195.819,276.378 196.000,275.400 196.000 C 274.630 196.000,274.000 196.180,274.000 196.400 C 274.000 196.645,272.067 196.800,269.000 196.800 C 265.933 196.800,264.000 196.645,264.000 196.400 C 264.000 196.144,260.267 196.000,253.600 196.000 C 246.933 196.000,243.200 196.144,243.200 196.400 C 243.200 196.620,242.300 196.800,241.200 196.800 C 240.100 196.800,239.200 196.980,239.200 197.200 C 239.200 197.420,238.660 197.600,238.000 197.600 C 237.340 197.600,236.800 197.780,236.800 198.000 C 236.800 198.220,236.390 198.400,235.888 198.400 C 235.387 198.400,234.717 198.760,234.400 199.200 C 234.083 199.640,233.588 200.000,233.301 200.000 C 232.573 200.000,229.200 203.445,229.200 204.189 C 229.200 204.525,229.020 204.800,228.800 204.800 C 228.580 204.800,228.400 205.070,228.400 205.400 C 228.400 205.730,228.220 206.000,228.000 206.000 C 227.738 206.000,227.600 213.200,227.600 226.800 C 227.600 240.400,227.462 247.600,227.200 247.600 C 226.935 247.600,226.800 271.467,226.800 318.400 C 226.800 365.333,226.665 389.200,226.400 389.200 C 226.153 389.200,226.000 391.267,226.000 394.600 L 226.000 400.000 230.000 400.000 L 234.000 400.000 234.000 391.600 C 234.000 386.267,234.146 383.200,234.400 383.200 C 234.665 383.200,234.800 353.800,234.800 295.800 C 234.800 218.378,234.868 208.400,235.400 208.400 C 235.800 208.400,236.000 208.000,236.000 207.200 C 236.000 206.540,236.180 206.000,236.400 206.000 C 236.620 206.000,236.800 205.814,236.800 205.587 C 236.800 204.942,239.501 202.400,240.187 202.400 C 240.524 202.400,240.800 202.220,240.800 202.000 C 240.800 201.780,241.160 201.600,241.600 201.600 C 242.040 201.600,242.400 201.420,242.400 201.200 C 242.400 200.980,242.760 200.800,243.200 200.800 C 243.640 200.800,244.000 200.620,244.000 200.400 C 244.000 200.180,244.630 200.000,245.400 200.000 C 246.170 200.000,246.800 199.820,246.800 199.600 C 246.800 199.380,247.160 199.200,247.600 199.200 C 248.040 199.200,248.400 199.380,248.400 199.600 C 248.400 199.839,249.933 200.000,252.200 200.000 C 254.467 200.000,256.000 200.161,256.000 200.400 C 256.000 200.655,259.267 200.800,265.000 200.800 C 270.733 200.800,274.000 200.655,274.000 200.400 C 274.000 200.180,274.810 200.000,275.800 200.000 C 276.790 200.000,277.600 199.820,277.600 199.600 C 277.600 199.380,278.320 199.200,279.200 199.200 C 280.080 199.200,280.800 199.020,280.800 198.800 C 280.800 198.580,281.340 198.400,282.000 198.400 C 282.660 198.400,283.200 198.220,283.200 198.000 C 283.200 197.780,283.830 197.600,284.600 197.600 C 285.370 197.600,286.000 197.420,286.000 197.200 C 286.000 196.980,286.283 196.800,286.629 196.800 C 287.301 196.800,288.400 195.880,288.400 195.317 C 288.400 195.130,288.760 194.717,289.200 194.400 C 289.757 193.998,290.000 193.365,290.000 192.312 C 290.000 191.480,290.180 190.800,290.400 190.800 C 290.635 190.800,290.800 189.400,290.800 187.400 C 290.800 185.400,290.965 184.000,291.200 184.000 C 291.456 184.000,291.600 180.400,291.600 174.000 C 291.600 167.600,291.744 164.000,292.000 164.000 C 292.254 164.000,292.400 160.867,292.400 155.400 C 292.400 149.933,292.546 146.800,292.800 146.800 C 293.039 146.800,293.200 145.267,293.200 143.000 C 293.200 140.733,293.039 139.200,292.800 139.200 C 292.580 139.200,292.400 138.660,292.400 138.000 C 292.400 137.340,292.220 136.800,292.000 136.800 C 291.780 136.800,291.600 136.350,291.600 135.800 C 291.600 135.250,291.420 134.800,291.200 134.800 C 290.980 134.800,290.800 134.525,290.800 134.189 C 290.800 133.032,287.334 130.000,286.011 130.000 C 285.345 130.000,284.800 129.820,284.800 129.600 C 284.800 129.340,279.133 129.200,268.600 129.200 C 258.067 129.200,252.400 129.340,252.400 129.600 C 252.400 129.833,251.067 130.000,249.200 130.000 C 247.333 130.000,246.000 129.833,246.000 129.600 C 246.000 129.380,245.550 129.200,245.000 129.200 C 244.450 129.200,244.000 129.020,244.000 128.800 C 244.000 128.580,243.640 128.400,243.200 128.400 C 242.760 128.400,242.400 128.220,242.400 128.000 C 242.400 127.780,242.117 127.600,241.771 127.600 C 240.920 127.600,240.000 126.622,240.000 125.717 C 240.000 125.310,239.640 124.717,239.200 124.400 C 238.760 124.083,238.400 123.503,238.400 123.112 C 238.400 122.720,238.220 122.400,238.000 122.400 C 237.780 122.400,237.600 122.040,237.600 121.600 C 237.600 121.160,237.420 120.800,237.200 120.800 C 236.980 120.800,236.800 120.260,236.800 119.600 C 236.800 118.940,236.620 118.400,236.400 118.400 C 236.180 118.400,236.000 117.860,236.000 117.200 C 236.000 116.400,235.800 116.000,235.400 116.000 C 234.899 116.000,234.800 115.178,234.800 111.000 C 234.800 106.822,234.899 106.000,235.400 106.000 C 235.917 106.000,236.000 104.622,236.000 96.000 C 236.000 89.600,236.144 86.000,236.400 86.000 C 236.620 86.000,236.800 85.590,236.800 85.088 C 236.800 84.587,237.160 83.917,237.600 83.600 C 238.040 83.283,238.400 82.789,238.400 82.503 C 238.400 81.825,242.625 77.600,243.303 77.600 C 243.589 77.600,244.083 77.240,244.400 76.800 C 244.717 76.360,245.387 76.000,245.888 76.000 C 246.432 76.000,246.800 75.758,246.800 75.400 C 246.800 74.883,248.133 74.800,256.400 74.800 C 264.667 74.800,266.000 74.883,266.000 75.400 C 266.000 75.897,266.756 76.000,270.400 76.000 C 274.044 76.000,274.800 75.897,274.800 75.400 C 274.800 74.892,275.757 74.800,281.013 74.800 L 287.227 74.800 288.613 73.413 C 289.376 72.651,290.000 71.790,290.000 71.502 C 290.000 71.213,290.360 70.717,290.800 70.400 C 291.240 70.083,291.600 69.503,291.600 69.112 C 291.600 68.720,291.780 68.400,292.000 68.400 C 292.220 68.400,292.400 68.040,292.400 67.600 C 292.400 67.160,292.580 66.800,292.800 66.800 C 293.020 66.800,293.200 66.170,293.200 65.400 C 293.200 64.630,293.380 64.000,293.600 64.000 C 293.820 64.000,294.000 63.640,294.000 63.200 C 294.000 62.760,294.180 62.400,294.400 62.400 C 294.657 62.400,294.800 58.533,294.800 51.600 C 294.800 44.667,294.657 40.800,294.400 40.800 C 294.140 40.800,294.000 35.533,294.000 25.800 C 294.000 16.067,293.860 10.800,293.600 10.800 C 293.353 10.800,293.200 8.733,293.200 5.400 L 293.200 0.000 290.800 0.000 L 288.400 0.000 288.400 3.800 " stroke="none" fill="#c06859" fill-rule="evenodd"></path><path id="path2" d="M186.800 3.629 C 186.800 7.439,186.421 8.400,184.917 8.400 C 184.510 8.400,183.917 8.760,183.600 9.200 C 183.283 9.640,182.703 10.000,182.312 10.000 C 181.920 10.000,181.600 10.180,181.600 10.400 C 181.600 10.620,181.240 10.800,180.800 10.800 C 180.360 10.800,180.000 10.980,180.000 11.200 C 180.000 11.420,179.640 11.600,179.200 11.600 C 178.760 11.600,178.400 11.780,178.400 12.000 C 178.400 12.220,178.040 12.400,177.600 12.400 C 177.160 12.400,176.800 12.580,176.800 12.800 C 176.800 13.020,176.350 13.200,175.800 13.200 C 175.250 13.200,174.800 13.380,174.800 13.600 C 174.800 13.820,174.517 14.000,174.171 14.000 C 173.453 14.000,172.400 14.934,172.400 15.571 C 172.400 15.807,172.121 16.000,171.781 16.000 C 171.440 16.000,169.919 17.260,168.400 18.800 C 166.881 20.340,165.534 21.600,165.406 21.600 C 164.843 21.600,162.400 24.443,162.400 25.098 C 162.400 25.497,162.040 26.083,161.600 26.400 C 161.160 26.717,160.800 27.297,160.800 27.688 C 160.800 28.080,160.620 28.400,160.400 28.400 C 160.180 28.400,160.000 28.760,160.000 29.200 C 160.000 29.640,159.820 30.000,159.600 30.000 C 159.380 30.000,159.200 30.360,159.200 30.800 C 159.200 31.240,159.020 31.600,158.800 31.600 C 158.580 31.600,158.400 31.960,158.400 32.400 C 158.400 32.840,158.220 33.200,158.000 33.200 C 157.780 33.200,157.600 33.560,157.600 34.000 C 157.600 34.440,157.420 34.800,157.200 34.800 C 156.980 34.800,156.800 35.250,156.800 35.800 C 156.800 36.350,156.620 36.800,156.400 36.800 C 156.180 36.800,156.000 37.160,156.000 37.600 C 156.000 38.040,155.814 38.400,155.587 38.400 C 154.988 38.400,152.400 41.079,152.400 41.698 C 152.400 41.987,152.040 42.483,151.600 42.800 C 151.160 43.117,150.800 43.697,150.800 44.088 C 150.800 44.480,150.620 44.800,150.400 44.800 C 150.180 44.800,150.000 45.250,150.000 45.800 C 150.000 46.350,149.820 46.800,149.600 46.800 C 149.380 46.800,149.200 47.700,149.200 48.800 C 149.200 49.900,149.020 50.800,148.800 50.800 C 148.565 50.800,148.400 52.200,148.400 54.200 C 148.400 56.200,148.235 57.600,148.000 57.600 C 147.738 57.600,147.600 64.922,147.600 78.767 C 147.600 95.309,147.491 99.984,147.100 100.167 C 146.700 100.353,146.700 100.447,147.100 100.633 C 147.732 100.928,147.830 114.000,147.200 114.000 C 146.980 114.000,146.800 114.630,146.800 115.400 C 146.800 116.170,146.620 116.800,146.400 116.800 C 146.180 116.800,146.000 117.340,146.000 118.000 C 146.000 118.800,145.800 119.200,145.400 119.200 C 145.067 119.200,144.800 119.556,144.800 120.000 C 144.800 120.440,144.620 120.800,144.400 120.800 C 144.180 120.800,144.000 121.160,144.000 121.600 C 144.000 122.040,143.820 122.400,143.600 122.400 C 143.380 122.400,143.200 122.760,143.200 123.200 C 143.200 123.640,143.020 124.000,142.800 124.000 C 142.580 124.000,142.400 124.368,142.400 124.818 C 142.400 126.603,140.686 127.600,137.618 127.600 C 136.006 127.600,134.800 127.429,134.800 127.200 C 134.800 126.946,131.667 126.800,126.200 126.800 C 120.733 126.800,117.600 126.946,117.600 127.200 C 117.600 127.420,116.696 127.600,115.591 127.600 C 113.550 127.600,109.200 130.937,109.200 132.503 C 109.200 132.789,108.840 133.283,108.400 133.600 C 107.960 133.917,107.600 134.587,107.600 135.088 C 107.600 135.590,107.420 136.000,107.200 136.000 C 106.980 136.000,106.800 136.540,106.800 137.200 C 106.800 137.860,106.620 138.400,106.400 138.400 C 106.180 138.400,106.000 138.760,106.000 139.200 C 106.000 139.644,105.733 140.000,105.400 140.000 C 104.874 140.000,104.800 142.667,104.800 161.600 C 104.800 180.533,104.874 183.200,105.400 183.200 C 105.906 183.200,106.000 184.111,106.000 189.000 C 106.000 192.600,106.152 194.800,106.400 194.800 C 106.620 194.800,106.800 195.070,106.800 195.400 C 106.800 195.730,106.980 196.000,107.200 196.000 C 107.420 196.000,107.600 196.273,107.600 196.607 C 107.600 197.399,112.601 202.400,113.393 202.400 C 113.727 202.400,114.000 202.580,114.000 202.800 C 114.000 203.050,116.389 203.200,120.367 203.200 C 125.069 203.200,126.794 203.331,126.967 203.700 C 127.153 204.100,127.247 204.100,127.433 203.700 C 127.587 203.371,128.611 203.200,130.433 203.200 C 132.011 203.200,133.200 203.028,133.200 202.800 C 133.200 202.560,134.804 202.400,137.213 202.400 L 141.227 202.400 142.613 203.787 C 143.376 204.549,144.000 205.282,144.000 205.415 C 144.000 205.818,145.114 206.800,145.571 206.800 C 145.829 206.800,146.000 207.760,146.000 209.200 C 146.000 210.533,146.178 211.600,146.400 211.600 C 146.641 211.600,146.800 213.267,146.800 215.800 C 146.800 218.333,146.959 220.000,147.200 220.000 C 147.465 220.000,147.600 250.267,147.600 310.000 C 147.600 399.733,147.602 400.000,148.400 400.000 C 149.172 400.000,149.200 399.733,149.200 392.400 C 149.200 387.600,149.053 384.800,148.800 384.800 C 148.535 384.800,148.400 355.800,148.400 298.600 C 148.400 241.400,148.265 212.400,148.000 212.400 C 147.771 212.400,147.600 211.200,147.600 209.600 C 147.600 208.000,147.429 206.800,147.200 206.800 C 146.980 206.800,146.800 206.427,146.800 205.971 C 146.800 205.180,145.955 204.000,145.389 204.000 C 145.242 204.000,144.617 203.460,144.000 202.800 C 143.383 202.140,142.591 201.600,142.240 201.600 C 141.888 201.600,141.600 201.420,141.600 201.200 C 141.600 200.959,139.933 200.800,137.400 200.800 C 134.867 200.800,133.200 200.959,133.200 201.200 C 133.200 201.453,130.333 201.600,125.400 201.600 C 120.467 201.600,117.600 201.453,117.600 201.200 C 117.600 200.980,116.610 200.800,115.400 200.800 C 114.190 200.800,113.200 200.620,113.200 200.400 C 113.200 200.180,112.922 200.000,112.582 200.000 C 111.826 200.000,110.000 198.237,110.000 197.506 C 110.000 197.215,109.640 196.717,109.200 196.400 C 108.760 196.083,108.400 195.413,108.400 194.912 C 108.400 194.410,108.220 194.000,108.000 194.000 C 107.757 194.000,107.600 192.200,107.600 189.400 C 107.600 186.600,107.443 184.800,107.200 184.800 C 106.938 184.800,106.800 177.067,106.800 162.400 C 106.800 147.733,106.938 140.000,107.200 140.000 C 107.420 140.000,107.600 139.640,107.600 139.200 C 107.600 138.760,107.780 138.400,108.000 138.400 C 108.220 138.400,108.400 138.040,108.400 137.600 C 108.400 137.160,108.580 136.800,108.800 136.800 C 109.020 136.800,109.200 136.390,109.200 135.888 C 109.200 135.387,109.560 134.717,110.000 134.400 C 110.440 134.083,110.800 133.587,110.800 133.298 C 110.800 131.877,113.524 130.000,115.587 130.000 C 116.694 130.000,117.600 129.820,117.600 129.600 C 117.600 129.357,119.389 129.200,122.167 129.200 C 125.429 129.200,126.800 129.057,126.967 128.700 C 127.153 128.300,127.247 128.300,127.433 128.700 C 127.603 129.064,129.131 129.200,133.033 129.200 C 136.344 129.200,138.400 129.353,138.400 129.600 C 138.400 129.820,138.854 130.000,139.409 130.000 C 140.654 130.000,144.800 126.008,144.800 124.809 C 144.800 124.357,145.065 124.000,145.400 124.000 C 145.800 124.000,146.000 123.600,146.000 122.800 C 146.000 122.140,146.180 121.600,146.400 121.600 C 146.620 121.600,146.800 121.060,146.800 120.400 C 146.800 119.740,146.980 119.200,147.200 119.200 C 147.420 119.200,147.600 118.660,147.600 118.000 C 147.600 117.340,147.780 116.800,148.000 116.800 C 148.262 116.800,148.400 109.000,148.400 94.200 C 148.400 79.400,148.538 71.600,148.800 71.600 C 149.052 71.600,149.200 68.867,149.200 64.200 C 149.200 59.533,149.348 56.800,149.600 56.800 C 149.826 56.800,150.000 55.667,150.000 54.200 C 150.000 52.733,150.174 51.600,150.400 51.600 C 150.621 51.600,150.800 50.563,150.800 49.288 C 150.800 47.435,150.959 46.862,151.600 46.400 C 152.040 46.083,152.400 45.485,152.400 45.072 C 152.400 44.659,152.940 43.817,153.600 43.200 C 154.260 42.583,154.800 41.791,154.800 41.440 C 154.800 41.088,154.993 40.800,155.229 40.800 C 155.831 40.800,156.800 39.762,156.800 39.117 C 156.800 38.820,157.160 38.317,157.600 38.000 C 158.040 37.683,158.400 37.103,158.400 36.712 C 158.400 36.320,158.580 36.000,158.800 36.000 C 159.020 36.000,159.200 35.370,159.200 34.600 C 159.200 33.830,159.380 33.200,159.600 33.200 C 159.820 33.200,160.000 32.840,160.000 32.400 C 160.000 31.960,160.180 31.600,160.400 31.600 C 160.620 31.600,160.800 31.280,160.800 30.888 C 160.800 30.497,161.160 29.917,161.600 29.600 C 162.040 29.283,162.400 28.743,162.400 28.400 C 162.400 28.057,162.760 27.517,163.200 27.200 C 163.640 26.883,164.000 26.290,164.000 25.883 C 164.000 25.177,164.868 24.000,165.389 24.000 C 165.524 24.000,167.059 22.560,168.800 20.800 C 170.541 19.040,172.204 17.600,172.495 17.600 C 172.785 17.600,173.283 17.240,173.600 16.800 C 173.917 16.360,174.587 16.000,175.088 16.000 C 175.590 16.000,176.000 15.807,176.000 15.571 C 176.000 14.934,177.053 14.000,177.771 14.000 C 178.117 14.000,178.400 13.820,178.400 13.600 C 178.400 13.380,178.760 13.200,179.200 13.200 C 179.640 13.200,180.000 13.020,180.000 12.800 C 180.000 12.580,180.360 12.400,180.800 12.400 C 181.240 12.400,181.600 12.220,181.600 12.000 C 181.600 11.780,181.960 11.600,182.400 11.600 C 182.840 11.600,183.200 11.420,183.200 11.200 C 183.200 10.980,183.560 10.800,184.000 10.800 C 184.440 10.800,184.800 10.620,184.800 10.400 C 184.800 10.180,185.166 10.000,185.613 10.000 C 187.801 10.000,189.200 7.509,189.200 3.613 L 189.200 0.000 188.000 0.000 L 186.800 0.000 186.800 3.629 M293.200 5.400 C 293.200 8.733,293.353 10.800,293.600 10.800 C 293.860 10.800,294.000 16.067,294.000 25.800 C 294.000 35.533,294.140 40.800,294.400 40.800 C 294.657 40.800,294.800 44.667,294.800 51.600 C 294.800 58.533,294.657 62.400,294.400 62.400 C 294.180 62.400,294.000 62.760,294.000 63.200 C 294.000 63.640,293.820 64.000,293.600 64.000 C 293.380 64.000,293.200 64.630,293.200 65.400 C 293.200 66.170,293.020 66.800,292.800 66.800 C 292.580 66.800,292.400 67.160,292.400 67.600 C 292.400 68.040,292.220 68.400,292.000 68.400 C 291.780 68.400,291.600 68.720,291.600 69.112 C 291.600 69.503,291.240 70.083,290.800 70.400 C 290.360 70.717,290.000 71.213,290.000 71.502 C 290.000 71.790,289.376 72.651,288.613 73.413 L 287.227 74.800 281.013 74.800 C 275.757 74.800,274.800 74.892,274.800 75.400 C 274.800 75.897,274.044 76.000,270.400 76.000 C 266.756 76.000,266.000 75.897,266.000 75.400 C 266.000 74.883,264.667 74.800,256.400 74.800 C 248.133 74.800,246.800 74.883,246.800 75.400 C 246.800 75.758,246.432 76.000,245.888 76.000 C 245.387 76.000,244.717 76.360,244.400 76.800 C 244.083 77.240,243.589 77.600,243.303 77.600 C 242.625 77.600,238.400 81.825,238.400 82.503 C 238.400 82.789,238.040 83.283,237.600 83.600 C 237.160 83.917,236.800 84.587,236.800 85.088 C 236.800 85.590,236.620 86.000,236.400 86.000 C 236.144 86.000,236.000 89.600,236.000 96.000 C 236.000 104.622,235.917 106.000,235.400 106.000 C 234.899 106.000,234.800 106.822,234.800 111.000 C 234.800 115.178,234.899 116.000,235.400 116.000 C 235.800 116.000,236.000 116.400,236.000 117.200 C 236.000 117.860,236.180 118.400,236.400 118.400 C 236.620 118.400,236.800 118.940,236.800 119.600 C 236.800 120.260,236.980 120.800,237.200 120.800 C 237.420 120.800,237.600 121.160,237.600 121.600 C 237.600 122.040,237.780 122.400,238.000 122.400 C 238.220 122.400,238.400 122.720,238.400 123.112 C 238.400 123.503,238.760 124.083,239.200 124.400 C 239.640 124.717,240.000 125.310,240.000 125.717 C 240.000 126.622,240.920 127.600,241.771 127.600 C 242.117 127.600,242.400 127.780,242.400 128.000 C 242.400 128.220,242.760 128.400,243.200 128.400 C 243.640 128.400,244.000 128.580,244.000 128.800 C 244.000 129.020,244.450 129.200,245.000 129.200 C 245.550 129.200,246.000 129.380,246.000 129.600 C 246.000 129.833,247.333 130.000,249.200 130.000 C 251.067 130.000,252.400 129.833,252.400 129.600 C 252.400 129.340,258.067 129.200,268.600 129.200 C 279.133 129.200,284.800 129.340,284.800 129.600 C 284.800 129.820,285.345 130.000,286.011 130.000 C 287.334 130.000,290.800 133.032,290.800 134.189 C 290.800 134.525,290.980 134.800,291.200 134.800 C 291.420 134.800,291.600 135.250,291.600 135.800 C 291.600 136.350,291.780 136.800,292.000 136.800 C 292.220 136.800,292.400 137.340,292.400 138.000 C 292.400 138.660,292.580 139.200,292.800 139.200 C 293.039 139.200,293.200 140.733,293.200 143.000 C 293.200 145.267,293.039 146.800,292.800 146.800 C 292.546 146.800,292.400 149.933,292.400 155.400 C 292.400 160.867,292.254 164.000,292.000 164.000 C 291.744 164.000,291.600 167.600,291.600 174.000 C 291.600 180.400,291.456 184.000,291.200 184.000 C 290.965 184.000,290.800 185.400,290.800 187.400 C 290.800 189.400,290.635 190.800,290.400 190.800 C 290.180 190.800,290.000 191.480,290.000 192.312 C 290.000 193.365,289.757 193.998,289.200 194.400 C 288.760 194.717,288.400 195.130,288.400 195.317 C 288.400 195.880,287.301 196.800,286.629 196.800 C 286.283 196.800,286.000 196.980,286.000 197.200 C 286.000 197.420,285.370 197.600,284.600 197.600 C 283.830 197.600,283.200 197.780,283.200 198.000 C 283.200 198.220,282.660 198.400,282.000 198.400 C 281.340 198.400,280.800 198.580,280.800 198.800 C 280.800 199.020,280.080 199.200,279.200 199.200 C 278.320 199.200,277.600 199.380,277.600 199.600 C 277.600 199.820,276.790 200.000,275.800 200.000 C 274.810 200.000,274.000 200.180,274.000 200.400 C 274.000 200.655,270.733 200.800,265.000 200.800 C 259.267 200.800,256.000 200.655,256.000 200.400 C 256.000 200.161,254.467 200.000,252.200 200.000 C 249.933 200.000,248.400 199.839,248.400 199.600 C 248.400 199.380,248.040 199.200,247.600 199.200 C 247.160 199.200,246.800 199.380,246.800 199.600 C 246.800 199.820,246.170 200.000,245.400 200.000 C 244.630 200.000,244.000 200.180,244.000 200.400 C 244.000 200.620,243.640 200.800,243.200 200.800 C 242.760 200.800,242.400 200.980,242.400 201.200 C 242.400 201.420,242.040 201.600,241.600 201.600 C 241.160 201.600,240.800 201.780,240.800 202.000 C 240.800 202.220,240.524 202.400,240.187 202.400 C 239.501 202.400,236.800 204.942,236.800 205.587 C 236.800 205.814,236.620 206.000,236.400 206.000 C 236.180 206.000,236.000 206.540,236.000 207.200 C 236.000 208.000,235.800 208.400,235.400 208.400 C 234.868 208.400,234.800 218.378,234.800 295.800 C 234.800 353.800,234.665 383.200,234.400 383.200 C 234.146 383.200,234.000 386.267,234.000 391.600 L 234.000 400.000 235.400 400.000 L 236.800 400.000 236.800 341.200 C 236.800 302.267,236.935 282.400,237.200 282.400 C 237.464 282.400,237.600 269.563,237.600 244.688 C 237.600 207.435,237.610 206.970,238.400 206.400 C 238.840 206.083,239.200 205.675,239.200 205.494 C 239.200 204.920,241.137 203.200,241.782 203.200 C 242.122 203.200,242.400 203.020,242.400 202.800 C 242.400 202.580,242.760 202.400,243.200 202.400 C 243.640 202.400,244.000 202.220,244.000 202.000 C 244.000 201.780,244.450 201.600,245.000 201.600 C 245.550 201.600,246.000 201.420,246.000 201.200 C 246.000 200.978,247.067 200.800,248.400 200.800 C 249.733 200.800,250.800 200.978,250.800 201.200 C 250.800 201.431,252.067 201.600,253.800 201.600 C 255.533 201.600,256.800 201.769,256.800 202.000 C 256.800 202.254,259.933 202.400,265.400 202.400 C 270.867 202.400,274.000 202.254,274.000 202.000 C 274.000 201.780,274.810 201.600,275.800 201.600 C 276.790 201.600,277.600 201.420,277.600 201.200 C 277.600 200.980,278.320 200.800,279.200 200.800 C 280.080 200.800,280.800 200.620,280.800 200.400 C 280.800 200.180,281.340 200.000,282.000 200.000 C 282.660 200.000,283.200 199.820,283.200 199.600 C 283.200 199.380,284.010 199.200,285.000 199.200 C 285.990 199.200,286.800 199.020,286.800 198.800 C 286.800 198.580,287.076 198.400,287.413 198.400 C 288.099 198.400,290.800 195.858,290.800 195.213 C 290.800 194.986,290.980 194.800,291.200 194.800 C 291.420 194.800,291.600 194.080,291.600 193.200 C 291.600 192.320,291.780 191.600,292.000 191.600 C 292.241 191.600,292.400 189.933,292.400 187.400 C 292.400 184.867,292.559 183.200,292.800 183.200 C 293.058 183.200,293.200 178.667,293.200 170.400 C 293.200 162.133,293.342 157.600,293.600 157.600 C 293.851 157.600,294.000 155.067,294.000 150.800 C 294.000 146.533,294.149 144.000,294.400 144.000 C 294.622 144.000,294.800 142.933,294.800 141.600 C 294.800 140.267,294.622 139.200,294.400 139.200 C 294.180 139.200,294.000 138.660,294.000 138.000 C 294.000 137.340,293.820 136.800,293.600 136.800 C 293.380 136.800,293.200 136.170,293.200 135.400 C 293.200 134.630,293.020 134.000,292.800 134.000 C 292.580 134.000,292.400 133.680,292.400 133.288 C 292.400 132.897,292.040 132.317,291.600 132.000 C 291.160 131.683,290.800 131.187,290.800 130.898 C 290.800 129.647,288.077 127.600,286.413 127.600 C 285.526 127.600,284.800 127.420,284.800 127.200 C 284.800 126.940,279.533 126.800,269.800 126.800 C 260.067 126.800,254.800 126.940,254.800 127.200 C 254.800 127.433,253.467 127.600,251.600 127.600 C 249.733 127.600,248.400 127.767,248.400 128.000 C 248.400 128.220,248.040 128.400,247.600 128.400 C 247.160 128.400,246.800 128.220,246.800 128.000 C 246.800 127.780,246.432 127.600,245.982 127.600 C 245.184 127.600,243.200 125.964,243.200 125.306 C 243.200 125.125,242.840 124.717,242.400 124.400 C 241.960 124.083,241.600 123.543,241.600 123.200 C 241.600 122.857,241.240 122.317,240.800 122.000 C 240.360 121.683,240.000 121.103,240.000 120.712 C 240.000 120.320,239.820 120.000,239.600 120.000 C 239.380 120.000,239.200 119.640,239.200 119.200 C 239.200 118.760,239.020 118.400,238.800 118.400 C 238.580 118.400,238.400 118.040,238.400 117.600 C 238.400 117.160,238.220 116.800,238.000 116.800 C 237.780 116.800,237.600 116.185,237.600 115.433 C 237.600 114.682,237.375 113.962,237.100 113.833 C 236.700 113.647,236.700 113.553,237.100 113.367 C 237.485 113.187,237.600 110.109,237.600 99.967 C 237.600 91.456,237.741 86.800,238.000 86.800 C 238.220 86.800,238.400 86.422,238.400 85.960 C 238.400 85.499,238.940 84.617,239.600 84.000 C 240.260 83.383,240.800 82.673,240.800 82.421 C 240.800 81.791,242.644 80.000,243.294 80.000 C 243.585 80.000,244.083 79.640,244.400 79.200 C 244.717 78.760,245.207 78.400,245.488 78.400 C 245.770 78.400,246.000 78.220,246.000 78.000 C 246.000 77.739,252.467 77.600,264.600 77.600 C 276.733 77.600,283.200 77.461,283.200 77.200 C 283.200 76.977,284.276 76.800,285.629 76.800 C 287.845 76.800,289.200 76.269,289.200 75.400 C 289.200 74.907,290.348 74.000,290.971 74.000 C 291.333 74.000,291.600 73.661,291.600 73.200 C 291.600 72.760,291.780 72.400,292.000 72.400 C 292.220 72.400,292.400 72.040,292.400 71.600 C 292.400 71.160,292.580 70.800,292.800 70.800 C 293.020 70.800,293.200 70.440,293.200 70.000 C 293.200 69.560,293.380 69.200,293.600 69.200 C 293.820 69.200,294.000 68.840,294.000 68.400 C 294.000 67.960,294.180 67.600,294.400 67.600 C 294.620 67.600,294.800 66.970,294.800 66.200 C 294.800 65.222,294.981 64.800,295.400 64.800 C 295.800 64.800,296.000 64.400,296.000 63.600 C 296.000 62.940,296.180 62.400,296.400 62.400 C 296.658 62.400,296.800 58.133,296.800 50.400 C 296.800 42.667,296.658 38.400,296.400 38.400 C 296.141 38.400,296.000 33.533,296.000 24.600 C 296.000 12.600,295.922 10.800,295.400 10.800 C 294.896 10.800,294.800 9.933,294.800 5.400 C 294.800 0.267,294.760 0.000,294.000 0.000 C 293.240 0.000,293.200 0.267,293.200 5.400 " stroke="none" fill="#c06859" fill-rule="evenodd"></path><path id="path3" d="M182.400 3.800 C 182.400 7.333,182.344 7.600,181.600 7.600 C 181.160 7.600,180.800 7.780,180.800 8.000 C 180.800 8.220,180.440 8.400,180.000 8.400 C 179.560 8.400,179.200 8.580,179.200 8.800 C 179.200 9.020,178.840 9.200,178.400 9.200 C 177.960 9.200,177.600 9.380,177.600 9.600 C 177.600 9.820,176.970 10.000,176.200 10.000 C 175.430 10.000,174.800 10.180,174.800 10.400 C 174.800 10.620,174.480 10.800,174.088 10.800 C 173.697 10.800,173.117 11.160,172.800 11.600 C 172.483 12.040,171.943 12.400,171.600 12.400 C 171.257 12.400,170.717 12.760,170.400 13.200 C 170.083 13.640,169.580 14.000,169.283 14.000 C 168.729 14.000,167.600 14.939,167.600 15.400 C 167.600 15.899,166.449 16.800,165.810 16.800 C 165.070 16.800,163.200 18.535,163.200 19.221 C 163.200 19.473,162.660 20.183,162.000 20.800 C 161.340 21.417,160.800 22.169,160.800 22.472 C 160.800 22.775,160.440 23.283,160.000 23.600 C 159.560 23.917,159.200 24.587,159.200 25.088 C 159.200 25.590,159.020 26.000,158.800 26.000 C 158.580 26.000,158.400 26.360,158.400 26.800 C 158.400 27.240,158.220 27.600,158.000 27.600 C 157.780 27.600,157.600 27.960,157.600 28.400 C 157.600 28.840,157.420 29.200,157.200 29.200 C 156.980 29.200,156.800 29.560,156.800 30.000 C 156.800 30.440,156.620 30.800,156.400 30.800 C 156.180 30.800,156.000 31.160,156.000 31.600 C 156.000 32.044,155.733 32.400,155.400 32.400 C 155.000 32.400,154.800 32.800,154.800 33.600 C 154.800 34.260,154.620 34.800,154.400 34.800 C 154.180 34.800,154.000 34.990,154.000 35.222 C 154.000 35.454,152.920 36.704,151.600 38.000 C 150.280 39.296,149.200 40.636,149.200 40.978 C 149.200 41.320,149.020 41.600,148.800 41.600 C 148.580 41.600,148.400 41.960,148.400 42.400 C 148.400 42.840,148.220 43.200,148.000 43.200 C 147.780 43.200,147.600 43.560,147.600 44.000 C 147.600 44.440,147.420 44.800,147.200 44.800 C 146.980 44.800,146.800 45.610,146.800 46.600 C 146.800 47.590,146.620 48.400,146.400 48.400 C 146.155 48.400,146.000 50.333,146.000 53.400 C 146.000 57.578,145.901 58.400,145.400 58.400 C 144.872 58.400,144.800 61.800,144.800 86.600 C 144.800 105.133,144.663 114.800,144.400 114.800 C 144.180 114.800,144.000 115.250,144.000 115.800 C 144.000 116.350,143.820 116.800,143.600 116.800 C 143.380 116.800,143.200 117.340,143.200 118.000 C 143.200 118.660,143.020 119.200,142.800 119.200 C 142.580 119.200,142.400 119.520,142.400 119.912 C 142.400 120.303,142.040 120.883,141.600 121.200 C 141.160 121.517,140.800 122.097,140.800 122.488 C 140.800 123.076,140.451 123.200,138.800 123.200 C 137.700 123.200,136.800 123.020,136.800 122.800 C 136.800 122.544,133.067 122.400,126.400 122.400 C 119.733 122.400,116.000 122.544,116.000 122.800 C 116.000 123.020,115.272 123.200,114.382 123.200 C 112.905 123.200,110.800 124.501,110.800 125.413 C 110.800 125.550,110.080 126.354,109.200 127.200 C 108.320 128.046,107.600 129.021,107.600 129.369 C 107.600 129.716,107.420 130.000,107.200 130.000 C 106.980 130.000,106.800 130.360,106.800 130.800 C 106.800 131.240,106.620 131.600,106.400 131.600 C 106.180 131.600,106.000 131.960,106.000 132.400 C 106.000 132.844,105.733 133.200,105.400 133.200 C 105.067 133.200,104.800 133.556,104.800 134.000 C 104.800 134.440,104.620 134.800,104.400 134.800 C 104.180 134.800,104.000 135.430,104.000 136.200 C 104.000 136.970,103.820 137.600,103.600 137.600 C 103.337 137.600,103.200 147.400,103.200 166.200 C 103.200 185.000,103.337 194.800,103.600 194.800 C 103.820 194.800,104.000 195.250,104.000 195.800 C 104.000 196.350,104.180 196.800,104.400 196.800 C 104.620 196.800,104.800 197.160,104.800 197.600 C 104.800 198.044,105.067 198.400,105.400 198.400 C 105.730 198.400,106.000 198.674,106.000 199.009 C 106.000 199.801,110.199 204.000,110.991 204.000 C 111.326 204.000,111.600 204.180,111.600 204.400 C 111.600 204.620,111.960 204.800,112.400 204.800 C 112.844 204.800,113.200 205.067,113.200 205.400 C 113.200 205.899,113.978 206.000,117.800 206.000 C 120.600 206.000,122.400 206.157,122.400 206.400 C 122.400 206.631,123.667 206.800,125.400 206.800 C 127.133 206.800,128.400 206.631,128.400 206.400 C 128.400 206.178,129.467 206.000,130.800 206.000 C 132.667 206.000,133.200 205.867,133.200 205.400 C 133.200 204.914,133.841 204.800,136.567 204.800 C 138.892 204.800,139.985 204.646,140.099 204.304 C 140.276 203.773,141.600 204.814,141.600 205.483 C 141.600 205.670,141.960 206.083,142.400 206.400 C 143.008 206.838,143.200 207.435,143.200 208.888 C 143.200 209.940,143.380 210.800,143.600 210.800 C 143.835 210.800,144.000 212.200,144.000 214.200 C 144.000 216.200,144.165 217.600,144.400 217.600 C 144.665 217.600,144.800 248.267,144.800 308.800 L 144.800 400.000 146.200 400.000 L 147.600 400.000 147.600 310.000 C 147.600 250.267,147.465 220.000,147.200 220.000 C 146.959 220.000,146.800 218.333,146.800 215.800 C 146.800 213.267,146.641 211.600,146.400 211.600 C 146.178 211.600,146.000 210.533,146.000 209.200 C 146.000 207.760,145.829 206.800,145.571 206.800 C 145.114 206.800,144.000 205.818,144.000 205.415 C 144.000 205.282,143.376 204.549,142.613 203.787 L 141.227 202.400 137.213 202.400 C 134.804 202.400,133.200 202.560,133.200 202.800 C 133.200 203.028,132.011 203.200,130.433 203.200 C 128.611 203.200,127.587 203.371,127.433 203.700 C 127.247 204.100,127.153 204.100,126.967 203.700 C 126.794 203.331,125.069 203.200,120.367 203.200 C 116.389 203.200,114.000 203.050,114.000 202.800 C 114.000 202.580,113.727 202.400,113.393 202.400 C 112.601 202.400,107.600 197.399,107.600 196.607 C 107.600 196.273,107.420 196.000,107.200 196.000 C 106.980 196.000,106.800 195.730,106.800 195.400 C 106.800 195.070,106.620 194.800,106.400 194.800 C 106.152 194.800,106.000 192.600,106.000 189.000 C 106.000 184.111,105.906 183.200,105.400 183.200 C 104.874 183.200,104.800 180.533,104.800 161.600 C 104.800 142.667,104.874 140.000,105.400 140.000 C 105.733 140.000,106.000 139.644,106.000 139.200 C 106.000 138.760,106.180 138.400,106.400 138.400 C 106.620 138.400,106.800 137.860,106.800 137.200 C 106.800 136.540,106.980 136.000,107.200 136.000 C 107.420 136.000,107.600 135.590,107.600 135.088 C 107.600 134.587,107.960 133.917,108.400 133.600 C 108.840 133.283,109.200 132.789,109.200 132.503 C 109.200 130.937,113.550 127.600,115.591 127.600 C 116.696 127.600,117.600 127.420,117.600 127.200 C 117.600 126.946,120.733 126.800,126.200 126.800 C 131.667 126.800,134.800 126.946,134.800 127.200 C 134.800 127.429,136.006 127.600,137.618 127.600 C 140.686 127.600,142.400 126.603,142.400 124.818 C 142.400 124.368,142.580 124.000,142.800 124.000 C 143.020 124.000,143.200 123.640,143.200 123.200 C 143.200 122.760,143.380 122.400,143.600 122.400 C 143.820 122.400,144.000 122.040,144.000 121.600 C 144.000 121.160,144.180 120.800,144.400 120.800 C 144.620 120.800,144.800 120.440,144.800 120.000 C 144.800 119.556,145.067 119.200,145.400 119.200 C 145.800 119.200,146.000 118.800,146.000 118.000 C 146.000 117.340,146.180 116.800,146.400 116.800 C 146.620 116.800,146.800 116.170,146.800 115.400 C 146.800 114.630,146.980 114.000,147.200 114.000 C 147.830 114.000,147.732 100.928,147.100 100.633 C 146.700 100.447,146.700 100.353,147.100 100.167 C 147.491 99.984,147.600 95.309,147.600 78.767 C 147.600 64.922,147.738 57.600,148.000 57.600 C 148.235 57.600,148.400 56.200,148.400 54.200 C 148.400 52.200,148.565 50.800,148.800 50.800 C 149.020 50.800,149.200 49.900,149.200 48.800 C 149.200 47.700,149.380 46.800,149.600 46.800 C 149.820 46.800,150.000 46.350,150.000 45.800 C 150.000 45.250,150.180 44.800,150.400 44.800 C 150.620 44.800,150.800 44.480,150.800 44.088 C 150.800 43.697,151.160 43.117,151.600 42.800 C 152.040 42.483,152.400 41.987,152.400 41.698 C 152.400 41.079,154.988 38.400,155.587 38.400 C 155.814 38.400,156.000 38.040,156.000 37.600 C 156.000 37.160,156.180 36.800,156.400 36.800 C 156.620 36.800,156.800 36.350,156.800 35.800 C 156.800 35.250,156.980 34.800,157.200 34.800 C 157.420 34.800,157.600 34.440,157.600 34.000 C 157.600 33.560,157.780 33.200,158.000 33.200 C 158.220 33.200,158.400 32.840,158.400 32.400 C 158.400 31.960,158.580 31.600,158.800 31.600 C 159.020 31.600,159.200 31.240,159.200 30.800 C 159.200 30.360,159.380 30.000,159.600 30.000 C 159.820 30.000,160.000 29.640,160.000 29.200 C 160.000 28.760,160.180 28.400,160.400 28.400 C 160.620 28.400,160.800 28.080,160.800 27.688 C 160.800 27.297,161.160 26.717,161.600 26.400 C 162.040 26.083,162.400 25.497,162.400 25.098 C 162.400 24.443,164.843 21.600,165.406 21.600 C 165.534 21.600,166.881 20.340,168.400 18.800 C 169.919 17.260,171.440 16.000,171.781 16.000 C 172.121 16.000,172.400 15.807,172.400 15.571 C 172.400 14.934,173.453 14.000,174.171 14.000 C 174.517 14.000,174.800 13.820,174.800 13.600 C 174.800 13.380,175.250 13.200,175.800 13.200 C 176.350 13.200,176.800 13.020,176.800 12.800 C 176.800 12.580,177.160 12.400,177.600 12.400 C 178.040 12.400,178.400 12.220,178.400 12.000 C 178.400 11.780,178.760 11.600,179.200 11.600 C 179.640 11.600,180.000 11.420,180.000 11.200 C 180.000 10.980,180.360 10.800,180.800 10.800 C 181.240 10.800,181.600 10.620,181.600 10.400 C 181.600 10.180,181.920 10.000,182.312 10.000 C 182.703 10.000,183.283 9.640,183.600 9.200 C 183.917 8.760,184.510 8.400,184.917 8.400 C 186.421 8.400,186.800 7.439,186.800 3.629 L 186.800 0.000 184.600 0.000 L 182.400 0.000 182.400 3.800 M294.800 5.400 C 294.800 9.933,294.896 10.800,295.400 10.800 C 295.922 10.800,296.000 12.600,296.000 24.600 C 296.000 33.533,296.141 38.400,296.400 38.400 C 296.658 38.400,296.800 42.667,296.800 50.400 C 296.800 58.133,296.658 62.400,296.400 62.400 C 296.180 62.400,296.000 62.940,296.000 63.600 C 296.000 64.400,295.800 64.800,295.400 64.800 C 294.981 64.800,294.800 65.222,294.800 66.200 C 294.800 66.970,294.620 67.600,294.400 67.600 C 294.180 67.600,294.000 67.960,294.000 68.400 C 294.000 68.840,293.820 69.200,293.600 69.200 C 293.380 69.200,293.200 69.560,293.200 70.000 C 293.200 70.440,293.020 70.800,292.800 70.800 C 292.580 70.800,292.400 71.160,292.400 71.600 C 292.400 72.040,292.220 72.400,292.000 72.400 C 291.780 72.400,291.600 72.760,291.600 73.200 C 291.600 73.661,291.333 74.000,290.971 74.000 C 290.348 74.000,289.200 74.907,289.200 75.400 C 289.200 76.269,287.845 76.800,285.629 76.800 C 284.276 76.800,283.200 76.977,283.200 77.200 C 283.200 77.461,276.733 77.600,264.600 77.600 C 252.467 77.600,246.000 77.739,246.000 78.000 C 246.000 78.220,245.770 78.400,245.488 78.400 C 245.207 78.400,244.717 78.760,244.400 79.200 C 244.083 79.640,243.585 80.000,243.294 80.000 C 242.644 80.000,240.800 81.791,240.800 82.421 C 240.800 82.673,240.260 83.383,239.600 84.000 C 238.940 84.617,238.400 85.499,238.400 85.960 C 238.400 86.422,238.220 86.800,238.000 86.800 C 237.741 86.800,237.600 91.456,237.600 99.967 C 237.600 110.109,237.485 113.187,237.100 113.367 C 236.700 113.553,236.700 113.647,237.100 113.833 C 237.375 113.962,237.600 114.682,237.600 115.433 C 237.600 116.185,237.780 116.800,238.000 116.800 C 238.220 116.800,238.400 117.160,238.400 117.600 C 238.400 118.040,238.580 118.400,238.800 118.400 C 239.020 118.400,239.200 118.760,239.200 119.200 C 239.200 119.640,239.380 120.000,239.600 120.000 C 239.820 120.000,240.000 120.320,240.000 120.712 C 240.000 121.103,240.360 121.683,240.800 122.000 C 241.240 122.317,241.600 122.857,241.600 123.200 C 241.600 123.543,241.960 124.083,242.400 124.400 C 242.840 124.717,243.200 125.125,243.200 125.306 C 243.200 125.964,245.184 127.600,245.982 127.600 C 246.432 127.600,246.800 127.780,246.800 128.000 C 246.800 128.220,247.160 128.400,247.600 128.400 C 248.040 128.400,248.400 128.220,248.400 128.000 C 248.400 127.767,249.733 127.600,251.600 127.600 C 253.467 127.600,254.800 127.433,254.800 127.200 C 254.800 126.940,260.067 126.800,269.800 126.800 C 279.533 126.800,284.800 126.940,284.800 127.200 C 284.800 127.420,285.526 127.600,286.413 127.600 C 288.077 127.600,290.800 129.647,290.800 130.898 C 290.800 131.187,291.160 131.683,291.600 132.000 C 292.040 132.317,292.400 132.897,292.400 133.288 C 292.400 133.680,292.580 134.000,292.800 134.000 C 293.020 134.000,293.200 134.630,293.200 135.400 C 293.200 136.170,293.380 136.800,293.600 136.800 C 293.820 136.800,294.000 137.340,294.000 138.000 C 294.000 138.660,294.180 139.200,294.400 139.200 C 294.622 139.200,294.800 140.267,294.800 141.600 C 294.800 142.933,294.622 144.000,294.400 144.000 C 294.149 144.000,294.000 146.533,294.000 150.800 C 294.000 155.067,293.851 157.600,293.600 157.600 C 293.342 157.600,293.200 162.133,293.200 170.400 C 293.200 178.667,293.058 183.200,292.800 183.200 C 292.559 183.200,292.400 184.867,292.400 187.400 C 292.400 189.933,292.241 191.600,292.000 191.600 C 291.780 191.600,291.600 192.320,291.600 193.200 C 291.600 194.080,291.420 194.800,291.200 194.800 C 290.980 194.800,290.800 194.986,290.800 195.213 C 290.800 195.858,288.099 198.400,287.413 198.400 C 287.076 198.400,286.800 198.580,286.800 198.800 C 286.800 199.020,285.990 199.200,285.000 199.200 C 284.010 199.200,283.200 199.380,283.200 199.600 C 283.200 199.820,282.660 200.000,282.000 200.000 C 281.340 200.000,280.800 200.180,280.800 200.400 C 280.800 200.620,280.080 200.800,279.200 200.800 C 278.320 200.800,277.600 200.980,277.600 201.200 C 277.600 201.420,276.790 201.600,275.800 201.600 C 274.810 201.600,274.000 201.780,274.000 202.000 C 274.000 202.254,270.867 202.400,265.400 202.400 C 259.933 202.400,256.800 202.254,256.800 202.000 C 256.800 201.769,255.533 201.600,253.800 201.600 C 252.067 201.600,250.800 201.431,250.800 201.200 C 250.800 200.978,249.733 200.800,248.400 200.800 C 247.067 200.800,246.000 200.978,246.000 201.200 C 246.000 201.420,245.550 201.600,245.000 201.600 C 244.450 201.600,244.000 201.780,244.000 202.000 C 244.000 202.220,243.640 202.400,243.200 202.400 C 242.760 202.400,242.400 202.580,242.400 202.800 C 242.400 203.020,242.122 203.200,241.782 203.200 C 241.137 203.200,239.200 204.920,239.200 205.494 C 239.200 205.675,238.840 206.083,238.400 206.400 C 237.610 206.970,237.600 207.435,237.600 244.688 C 237.600 269.563,237.464 282.400,237.200 282.400 C 236.935 282.400,236.800 302.267,236.800 341.200 L 236.800 400.000 238.400 400.000 L 240.000 400.000 240.000 317.033 C 240.000 251.051,240.102 234.019,240.500 233.833 C 240.900 233.647,240.900 233.553,240.500 233.367 C 239.866 233.071,239.768 217.600,240.400 217.600 C 240.647 217.600,240.800 215.563,240.800 212.288 C 240.800 207.435,240.869 206.927,241.600 206.400 C 242.040 206.083,242.400 205.593,242.400 205.312 C 242.400 205.030,242.720 204.800,243.112 204.800 C 243.503 204.800,244.083 204.440,244.400 204.000 C 244.717 203.560,245.372 203.200,245.855 203.200 C 246.338 203.200,246.838 202.975,246.967 202.700 C 247.153 202.300,247.247 202.300,247.433 202.700 C 247.581 203.017,248.531 203.200,250.033 203.200 C 251.344 203.200,252.400 203.378,252.400 203.600 C 252.400 203.820,253.390 204.000,254.600 204.000 C 255.810 204.000,256.800 204.180,256.800 204.400 C 256.800 204.651,259.400 204.800,263.800 204.800 C 268.200 204.800,270.800 204.651,270.800 204.400 C 270.800 204.169,272.067 204.000,273.800 204.000 C 275.533 204.000,276.800 203.831,276.800 203.600 C 276.800 203.380,277.700 203.200,278.800 203.200 C 279.900 203.200,280.800 203.020,280.800 202.800 C 280.800 202.580,281.520 202.400,282.400 202.400 C 283.280 202.400,284.000 202.220,284.000 202.000 C 284.000 201.780,284.810 201.600,285.800 201.600 C 286.790 201.600,287.600 201.420,287.600 201.200 C 287.600 200.980,287.873 200.800,288.207 200.800 C 289.117 200.800,294.000 195.748,294.000 194.807 C 294.000 194.363,294.180 194.000,294.400 194.000 C 294.648 194.000,294.800 191.800,294.800 188.200 C 294.800 183.311,294.894 182.400,295.400 182.400 C 295.923 182.400,296.000 180.333,296.000 166.200 C 296.000 155.667,296.140 150.000,296.400 150.000 C 296.643 150.000,296.800 148.211,296.800 145.433 C 296.800 142.171,296.943 140.800,297.300 140.633 C 297.700 140.447,297.700 140.353,297.300 140.167 C 296.999 140.026,296.800 139.149,296.800 137.967 C 296.800 136.885,296.620 136.000,296.400 136.000 C 296.180 136.000,296.000 135.190,296.000 134.200 C 296.000 132.867,295.844 132.400,295.400 132.400 C 295.067 132.400,294.800 132.044,294.800 131.600 C 294.800 131.160,294.620 130.800,294.400 130.800 C 294.180 130.800,294.000 130.440,294.000 130.000 C 294.000 129.560,293.820 129.200,293.600 129.200 C 293.380 129.200,293.200 128.912,293.200 128.560 C 293.200 128.209,292.660 127.417,292.000 126.800 C 291.340 126.183,290.800 125.558,290.800 125.411 C 290.800 124.941,289.677 124.000,289.117 124.000 C 288.820 124.000,288.317 123.640,288.000 123.200 C 287.347 122.294,254.000 121.902,254.000 122.800 C 254.000 123.033,252.678 123.200,250.833 123.200 C 248.668 123.200,247.614 123.357,247.501 123.696 C 247.281 124.357,246.000 123.105,246.000 122.229 C 246.000 121.883,245.814 121.600,245.587 121.600 C 244.942 121.600,242.400 118.899,242.400 118.213 C 242.400 117.876,242.220 117.600,242.000 117.600 C 241.780 117.600,241.600 117.240,241.600 116.800 C 241.600 116.360,241.420 116.000,241.200 116.000 C 240.980 116.000,240.800 115.550,240.800 115.000 C 240.800 114.450,240.620 114.000,240.400 114.000 C 240.180 114.000,240.000 113.100,240.000 112.000 C 240.000 110.900,240.180 110.000,240.400 110.000 C 240.658 110.000,240.800 105.733,240.800 98.000 C 240.800 90.267,240.942 86.000,241.200 86.000 C 241.420 86.000,241.600 85.815,241.600 85.589 C 241.600 85.055,245.055 81.600,245.589 81.600 C 245.815 81.600,246.000 81.420,246.000 81.200 C 246.000 80.940,251.933 80.800,263.000 80.800 C 274.067 80.800,280.000 80.660,280.000 80.400 C 280.000 80.159,281.667 80.000,284.200 80.000 C 286.733 80.000,288.400 79.841,288.400 79.600 C 288.400 79.380,288.760 79.200,289.200 79.200 C 289.640 79.200,290.000 79.020,290.000 78.800 C 290.000 78.580,290.276 78.400,290.613 78.400 C 291.194 78.400,294.000 75.901,294.000 75.385 C 294.000 74.982,295.114 74.000,295.571 74.000 C 295.807 74.000,296.000 73.640,296.000 73.200 C 296.000 72.760,296.180 72.400,296.400 72.400 C 296.620 72.400,296.800 71.860,296.800 71.200 C 296.800 70.540,296.980 70.000,297.200 70.000 C 297.420 70.000,297.600 69.460,297.600 68.800 C 297.600 68.140,297.780 67.600,298.000 67.600 C 298.220 67.600,298.400 66.790,298.400 65.800 C 298.400 64.810,298.580 64.000,298.800 64.000 C 299.059 64.000,299.200 58.867,299.200 49.400 C 299.200 39.933,299.059 34.800,298.800 34.800 C 298.542 34.800,298.400 30.400,298.400 22.400 C 298.400 14.400,298.258 10.000,298.000 10.000 C 297.755 10.000,297.600 8.067,297.600 5.000 L 297.600 0.000 296.200 0.000 L 294.800 0.000 294.800 5.400 " stroke="none" fill="#c06859" fill-rule="evenodd"></path><path id="path4" d="M0.000 200.000 L 0.000 400.000 72.400 400.000 L 144.800 400.000 144.800 308.800 C 144.800 248.267,144.665 217.600,144.400 217.600 C 144.165 217.600,144.000 216.200,144.000 214.200 C 144.000 212.200,143.835 210.800,143.600 210.800 C 143.380 210.800,143.200 209.940,143.200 208.888 C 143.200 207.435,143.008 206.838,142.400 206.400 C 141.960 206.083,141.600 205.670,141.600 205.483 C 141.600 204.814,140.276 203.773,140.099 204.304 C 139.985 204.646,138.892 204.800,136.567 204.800 C 133.841 204.800,133.200 204.914,133.200 205.400 C 133.200 205.867,132.667 206.000,130.800 206.000 C 129.467 206.000,128.400 206.178,128.400 206.400 C 128.400 206.631,127.133 206.800,125.400 206.800 C 123.667 206.800,122.400 206.631,122.400 206.400 C 122.400 206.157,120.600 206.000,117.800 206.000 C 113.978 206.000,113.200 205.899,113.200 205.400 C 113.200 205.067,112.844 204.800,112.400 204.800 C 111.960 204.800,111.600 204.620,111.600 204.400 C 111.600 204.180,111.326 204.000,110.991 204.000 C 110.199 204.000,106.000 199.801,106.000 199.009 C 106.000 198.674,105.730 198.400,105.400 198.400 C 105.067 198.400,104.800 198.044,104.800 197.600 C 104.800 197.160,104.620 196.800,104.400 196.800 C 104.180 196.800,104.000 196.350,104.000 195.800 C 104.000 195.250,103.820 194.800,103.600 194.800 C 103.337 194.800,103.200 185.000,103.200 166.200 C 103.200 147.400,103.337 137.600,103.600 137.600 C 103.820 137.600,104.000 136.970,104.000 136.200 C 104.000 135.430,104.180 134.800,104.400 134.800 C 104.620 134.800,104.800 134.440,104.800 134.000 C 104.800 133.556,105.067 133.200,105.400 133.200 C 105.733 133.200,106.000 132.844,106.000 132.400 C 106.000 131.960,106.180 131.600,106.400 131.600 C 106.620 131.600,106.800 131.240,106.800 130.800 C 106.800 130.360,106.980 130.000,107.200 130.000 C 107.420 130.000,107.600 129.716,107.600 129.369 C 107.600 129.021,108.320 128.046,109.200 127.200 C 110.080 126.354,110.800 125.550,110.800 125.413 C 110.800 124.501,112.905 123.200,114.382 123.200 C 115.272 123.200,116.000 123.020,116.000 122.800 C 116.000 122.544,119.733 122.400,126.400 122.400 C 133.067 122.400,136.800 122.544,136.800 122.800 C 136.800 123.020,137.700 123.200,138.800 123.200 C 140.451 123.200,140.800 123.076,140.800 122.488 C 140.800 122.097,141.160 121.517,141.600 121.200 C 142.040 120.883,142.400 120.303,142.400 119.912 C 142.400 119.520,142.580 119.200,142.800 119.200 C 143.020 119.200,143.200 118.660,143.200 118.000 C 143.200 117.340,143.380 116.800,143.600 116.800 C 143.820 116.800,144.000 116.350,144.000 115.800 C 144.000 115.250,144.180 114.800,144.400 114.800 C 144.663 114.800,144.800 105.133,144.800 86.600 C 144.800 61.800,144.872 58.400,145.400 58.400 C 145.901 58.400,146.000 57.578,146.000 53.400 C 146.000 50.333,146.155 48.400,146.400 48.400 C 146.620 48.400,146.800 47.590,146.800 46.600 C 146.800 45.610,146.980 44.800,147.200 44.800 C 147.420 44.800,147.600 44.440,147.600 44.000 C 147.600 43.560,147.780 43.200,148.000 43.200 C 148.220 43.200,148.400 42.840,148.400 42.400 C 148.400 41.960,148.580 41.600,148.800 41.600 C 149.020 41.600,149.200 41.320,149.200 40.978 C 149.200 40.636,150.280 39.296,151.600 38.000 C 152.920 36.704,154.000 35.454,154.000 35.222 C 154.000 34.990,154.180 34.800,154.400 34.800 C 154.620 34.800,154.800 34.260,154.800 33.600 C 154.800 32.800,155.000 32.400,155.400 32.400 C 155.733 32.400,156.000 32.044,156.000 31.600 C 156.000 31.160,156.180 30.800,156.400 30.800 C 156.620 30.800,156.800 30.440,156.800 30.000 C 156.800 29.560,156.980 29.200,157.200 29.200 C 157.420 29.200,157.600 28.840,157.600 28.400 C 157.600 27.960,157.780 27.600,158.000 27.600 C 158.220 27.600,158.400 27.240,158.400 26.800 C 158.400 26.360,158.580 26.000,158.800 26.000 C 159.020 26.000,159.200 25.590,159.200 25.088 C 159.200 24.587,159.560 23.917,160.000 23.600 C 160.440 23.283,160.800 22.775,160.800 22.472 C 160.800 22.169,161.340 21.417,162.000 20.800 C 162.660 20.183,163.200 19.473,163.200 19.221 C 163.200 18.535,165.070 16.800,165.810 16.800 C 166.449 16.800,167.600 15.899,167.600 15.400 C 167.600 14.939,168.729 14.000,169.283 14.000 C 169.580 14.000,170.083 13.640,170.400 13.200 C 170.717 12.760,171.257 12.400,171.600 12.400 C 171.943 12.400,172.483 12.040,172.800 11.600 C 173.117 11.160,173.697 10.800,174.088 10.800 C 174.480 10.800,174.800 10.620,174.800 10.400 C 174.800 10.180,175.430 10.000,176.200 10.000 C 176.970 10.000,177.600 9.820,177.600 9.600 C 177.600 9.380,177.960 9.200,178.400 9.200 C 178.840 9.200,179.200 9.020,179.200 8.800 C 179.200 8.580,179.560 8.400,180.000 8.400 C 180.440 8.400,180.800 8.220,180.800 8.000 C 180.800 7.780,181.160 7.600,181.600 7.600 C 182.344 7.600,182.400 7.333,182.400 3.800 L 182.400 0.000 91.200 0.000 L 0.000 0.000 0.000 200.000 M297.600 5.000 C 297.600 8.067,297.755 10.000,298.000 10.000 C 298.258 10.000,298.400 14.400,298.400 22.400 C 298.400 30.400,298.542 34.800,298.800 34.800 C 299.059 34.800,299.200 39.933,299.200 49.400 C 299.200 58.867,299.059 64.000,298.800 64.000 C 298.580 64.000,298.400 64.810,298.400 65.800 C 298.400 66.790,298.220 67.600,298.000 67.600 C 297.780 67.600,297.600 68.140,297.600 68.800 C 297.600 69.460,297.420 70.000,297.200 70.000 C 296.980 70.000,296.800 70.540,296.800 71.200 C 296.800 71.860,296.620 72.400,296.400 72.400 C 296.180 72.400,296.000 72.760,296.000 73.200 C 296.000 73.640,295.807 74.000,295.571 74.000 C 295.114 74.000,294.000 74.982,294.000 75.385 C 294.000 75.901,291.194 78.400,290.613 78.400 C 290.276 78.400,290.000 78.580,290.000 78.800 C 290.000 79.020,289.640 79.200,289.200 79.200 C 288.760 79.200,288.400 79.380,288.400 79.600 C 288.400 79.841,286.733 80.000,284.200 80.000 C 281.667 80.000,280.000 80.159,280.000 80.400 C 280.000 80.660,274.067 80.800,263.000 80.800 C 251.933 80.800,246.000 80.940,246.000 81.200 C 246.000 81.420,245.815 81.600,245.589 81.600 C 245.055 81.600,241.600 85.055,241.600 85.589 C 241.600 85.815,241.420 86.000,241.200 86.000 C 240.942 86.000,240.800 90.267,240.800 98.000 C 240.800 105.733,240.658 110.000,240.400 110.000 C 240.180 110.000,240.000 110.900,240.000 112.000 C 240.000 113.100,240.180 114.000,240.400 114.000 C 240.620 114.000,240.800 114.450,240.800 115.000 C 240.800 115.550,240.980 116.000,241.200 116.000 C 241.420 116.000,241.600 116.360,241.600 116.800 C 241.600 117.240,241.780 117.600,242.000 117.600 C 242.220 117.600,242.400 117.876,242.400 118.213 C 242.400 118.899,244.942 121.600,245.587 121.600 C 245.814 121.600,246.000 121.883,246.000 122.229 C 246.000 123.105,247.281 124.357,247.501 123.696 C 247.614 123.357,248.668 123.200,250.833 123.200 C 252.678 123.200,254.000 123.033,254.000 122.800 C 254.000 121.902,287.347 122.294,288.000 123.200 C 288.317 123.640,288.820 124.000,289.117 124.000 C 289.677 124.000,290.800 124.941,290.800 125.411 C 290.800 125.558,291.340 126.183,292.000 126.800 C 292.660 127.417,293.200 128.209,293.200 128.560 C 293.200 128.912,293.380 129.200,293.600 129.200 C 293.820 129.200,294.000 129.560,294.000 130.000 C 294.000 130.440,294.180 130.800,294.400 130.800 C 294.620 130.800,294.800 131.160,294.800 131.600 C 294.800 132.044,295.067 132.400,295.400 132.400 C 295.844 132.400,296.000 132.867,296.000 134.200 C 296.000 135.190,296.180 136.000,296.400 136.000 C 296.620 136.000,296.800 136.885,296.800 137.967 C 296.800 139.149,296.999 140.026,297.300 140.167 C 297.700 140.353,297.700 140.447,297.300 140.633 C 296.943 140.800,296.800 142.171,296.800 145.433 C 296.800 148.211,296.643 150.000,296.400 150.000 C 296.140 150.000,296.000 155.667,296.000 166.200 C 296.000 180.333,295.923 182.400,295.400 182.400 C 294.894 182.400,294.800 183.311,294.800 188.200 C 294.800 191.800,294.648 194.000,294.400 194.000 C 294.180 194.000,294.000 194.363,294.000 194.807 C 294.000 195.748,289.117 200.800,288.207 200.800 C 287.873 200.800,287.600 200.980,287.600 201.200 C 287.600 201.420,286.790 201.600,285.800 201.600 C 284.810 201.600,284.000 201.780,284.000 202.000 C 284.000 202.220,283.280 202.400,282.400 202.400 C 281.520 202.400,280.800 202.580,280.800 202.800 C 280.800 203.020,279.900 203.200,278.800 203.200 C 277.700 203.200,276.800 203.380,276.800 203.600 C 276.800 203.831,275.533 204.000,273.800 204.000 C 272.067 204.000,270.800 204.169,270.800 204.400 C 270.800 204.651,268.200 204.800,263.800 204.800 C 259.400 204.800,256.800 204.651,256.800 204.400 C 256.800 204.180,255.810 204.000,254.600 204.000 C 253.390 204.000,252.400 203.820,252.400 203.600 C 252.400 203.378,251.344 203.200,250.033 203.200 C 248.531 203.200,247.581 203.017,247.433 202.700 C 247.247 202.300,247.153 202.300,246.967 202.700 C 246.838 202.975,246.338 203.200,245.855 203.200 C 245.372 203.200,244.717 203.560,244.400 204.000 C 244.083 204.440,243.503 204.800,243.112 204.800 C 242.720 204.800,242.400 205.030,242.400 205.312 C 242.400 205.593,242.040 206.083,241.600 206.400 C 240.869 206.927,240.800 207.435,240.800 212.288 C 240.800 215.563,240.647 217.600,240.400 217.600 C 239.768 217.600,239.866 233.071,240.500 233.367 C 240.900 233.553,240.900 233.647,240.500 233.833 C 240.102 234.019,240.000 251.051,240.000 317.033 L 240.000 400.000 320.000 400.000 L 400.000 400.000 400.000 200.000 L 400.000 0.000 348.800 0.000 L 297.600 0.000 297.600 5.000 " stroke="none" fill="#c06859" fill-rule="evenodd"></path></g></svg>