<svg width="215" height="237" xmlns="http://www.w3.org/2000/svg" xmlns:xlink="http://www.w3.org/1999/xlink" overflow="hidden"><defs><clipPath id="clip0"><rect x="618" y="469" width="215" height="237"/></clipPath><clipPath id="clip1"><rect x="619" y="470" width="214" height="236"/></clipPath><clipPath id="clip2"><rect x="619" y="469" width="214" height="237"/></clipPath></defs><g clip-path="url(#clip0)" transform="translate(-618 -469)"><g clip-path="url(#clip1)"><g clip-path="url(#clip2)"><path d="M401.072 481.238C392.839 478.975 382.439 472.09 371.316 461.546L367.802 458.175 365.539 459.042C364.287 459.523 361.783 460.342 359.905 460.823 358.076 461.353 356.102 461.979 355.62 462.268 353.694 463.375 342.957 462.46 337.805 460.727 332.605 458.946 330.583 457.597 324.709 451.771 316.428 443.634 311.709 441.083 304.776 441.083 298.517 441.035 293.028 444.116 287.635 450.712 286.143 452.542 284.747 454.034 284.506 454.034 283.495 454.034 284.217 452.157 286.191 449.653 288.984 446.138 292.787 442.912 296.591 440.986 299.576 439.446 299.961 439.349 304.776 439.349 309.639 439.349 309.976 439.397 313.683 441.179 318.691 443.586 321.772 445.946 327.406 451.627 332.702 457.02 335.302 458.464 342.042 459.86 348.205 461.112 352.683 461.064 357.691 459.571 364.816 457.453 365.491 457.26 365.779 456.779 365.924 456.538 365.298 455.575 364.383 454.612 353.839 443.394 351.287 431.02 358.702 427.168 361.928 425.483 365.394 425.916 370.642 428.564 373.772 430.153 375.168 431.212 376.661 433.042 380.898 438.435 382.15 443.923 379.983 448.016 378.779 450.423 375.072 453.986 372.087 455.72 370.787 456.442 369.776 457.164 369.776 457.309 369.776 457.501 371.653 459.379 373.965 461.497 387.783 474.257 398.038 480.034 406.801 480.034 417.298 480.034 422.738 473.823 423.557 461.064 424.038 453.168 424.231 453.842 412.483 428.757 393.176 387.446 390.479 381.909 383.787 369.342 382.15 366.309 380.85 363.565 380.85 363.276 380.85 362.168 375.987 356.294 373.098 353.887 369.294 350.757 363.228 347.82 358.028 346.713 353.502 345.702 353.116 345.557 353.646 344.787 354.079 344.065 355.572 344.161 359.424 345.172 367.079 347.146 372.568 350.42 377.768 355.957 380.994 359.472 381.861 360.868 385.713 368.572 388.024 373.339 390.624 378.442 391.394 379.887 392.742 382.342 396.113 389.372 400.109 398.038L401.698 401.553 405.598 401.264C407.764 401.12 410.99 400.927 412.868 400.927L416.19 400.831 416.624 399.146C421.968 378.539 426.927 367.898 434.438 360.628 438.194 356.968 442.142 355.187 447.005 354.946 456.249 354.465 465.638 359.713 478.012 372.327L483.886 378.346 483.886 374.157C483.886 369.342 485.09 363.95 487.016 360.146 488.46 357.257 491.975 353.309 494.479 351.72 496.742 350.324 500.497 349.072 502.567 349.072 507.479 349.072 519.756 354.176 525.678 358.702 527.075 359.761 531.215 362.746 534.827 365.298 543.349 371.268 542.964 370.931 555.53 383.402L566.267 394.09 565.015 390.72C564.293 388.89 562.512 384.413 561.067 380.85 559.575 377.287 557.889 372.953 557.312 371.22 556.686 369.487 554.567 363.853 552.545 358.702 550.523 353.55 548.789 348.687 548.741 347.917 548.549 345.317 549.752 346.135 551.919 350.131 556.397 358.316 559.671 362.265 574.163 376.853 589.234 391.972 589.185 391.972 596.889 394.331 604.015 396.546 608.059 395.198 609.071 390.335 609.6 387.59 609.119 381.187 607.915 374.927 606.904 369.92 606.037 358.076 606.374 354.657 607.145 347.772 608.878 344.739 612.152 344.739 617.256 344.739 626.933 355.091 639.356 373.724 641.763 377.383 643.737 380.464 643.737 380.657 643.737 381.764 663.718 402.324 665.837 403.479 666.944 404.057 666.944 404.009 666.655 402.709 665.933 399.531 656.689 381.716 655.1 380.416 654.715 380.079 651.633 378.779 648.263 377.479 641.763 374.927 640.848 374.398 641.619 373.628 641.907 373.339 643.978 373.868 647.589 375.265 650.622 376.42 653.222 377.287 653.318 377.19 653.511 376.998 644.844 362.602 639.115 353.598 636.9 350.131 635.07 346.905 635.07 346.472 635.07 344.883 636.467 345.798 638.874 349.024 644.122 356.102 651.874 362.794 656.207 363.998 662.611 365.779 667.378 363.083 671.374 355.476 673.396 351.576 676.044 348.879 680.089 346.424 682.689 344.835 683.218 344.691 685.433 344.883 686.829 345.028 688.563 345.461 689.381 345.894 693.329 347.917 697.181 352.779 698.048 356.776 698.385 358.22 699.348 361.687 700.166 364.479L701.755 369.535 701.996 364.239C702.237 359.809 702.477 358.461 703.633 356.054 707.389 347.772 715.044 345.605 723.903 350.179 727.514 352.057 733.388 357.883 735.748 361.976L737.481 364.961 737.77 361.446C738.348 354.657 740.562 350.276 744.222 348.783 750.673 346.087 762.325 351.142 778.31 363.661 785.533 369.294 793.236 375.987 793.236 376.613 793.236 377.961 791.792 377.287 788.325 374.205 778.936 365.972 766.081 356.583 759.822 353.405 753.033 349.987 747.111 349.12 743.981 350.998 741.429 352.539 739.985 356.294 739.696 361.976 739.311 369.294 742.633 387.783 745.618 394.909 746.244 396.45 746.773 397.942 746.773 398.279 746.773 399.964 738.877 401.216 732.233 400.542 716.874 399.05 705.703 387.542 698.914 366.309 697.711 362.505 696.411 358.22 696.026 356.728 694.629 351.72 689.189 346.665 685.192 346.665 681.148 346.665 673.926 352.683 672.867 356.92 672.289 359.087 667.185 364.239 664.393 365.442 659.481 367.513 653.559 365.876 647.156 360.628L644.074 358.124 645.23 359.953C645.856 361.013 648.696 365.635 651.489 370.257L656.593 378.683 669.785 383.787C679.174 387.398 683.026 389.083 683.122 389.661 683.218 390.094 683.026 390.479 682.737 390.479 682.448 390.479 676.863 388.409 670.363 385.905 663.815 383.402 658.422 381.379 658.374 381.476 658.326 381.524 659.963 384.702 662.081 388.553 665.885 395.535 668.774 402.131 668.774 403.864 668.774 404.394 668.437 405.068 668.004 405.453 666.8 406.464 663.67 404.49 658.518 399.435 649.563 390.576 644.026 384.027 637.959 375.024 630.304 363.565 625.682 357.546 620.626 352.442 613.019 344.739 609.697 344.835 608.445 352.876 607.819 357.161 608.493 367.465 610.034 376.468 611.478 384.702 611.285 391.49 609.552 393.994 608.878 394.957 607.53 396.113 606.567 396.546 603.148 398.087 595.974 396.738 589.33 393.32 587.645 392.453 584.419 389.757 580.567 386.05 571.034 376.805 558.467 363.516 556.397 360.483 555.338 358.991 554.423 357.787 554.375 357.883 554.182 358.028 558.804 370.113 561.452 376.516 562.271 378.49 563.33 381.235 563.812 382.535 564.293 383.883 565.786 387.735 567.134 391.153 569.686 397.557 569.926 398.424 569.108 398.905 568.867 399.05 562.849 393.368 555.771 386.242 548.645 379.164 541.664 372.472 540.219 371.413 531.841 365.25 520.767 357.642 518.071 356.15 516.338 355.187 512.582 353.646 509.645 352.635 505.216 351.191 503.916 350.902 501.605 351.142 494.768 351.768 488.797 357.883 486.534 366.646 485.668 370.016 485.571 377.816 486.342 381.235L486.919 383.594 489.856 382.39C491.927 381.524 493.997 381.09 496.934 380.946 500.593 380.753 501.267 380.85 503.434 381.957 508.971 384.798 512.871 391.876 512.823 399.05 512.775 403.624 510.801 405.598 506.13 405.646 502.182 405.646 498.523 403.672 493.949 399.146 489.905 395.101 487.786 391.779 485.812 386.098 484.175 381.524 482.779 379.646 475.027 371.894 467.131 364.046 460.92 359.761 454.131 357.498 450.423 356.294 444.02 356.631 440.89 358.172 432.416 362.313 425.242 374.35 420.09 393.224 419.175 396.594 418.405 399.724 418.405 400.109 418.405 400.687 419.609 401.072 423.798 401.746 430.635 402.805 438.001 405.164 444.164 408.294 446.812 409.594 449.22 410.701 449.46 410.701 449.749 410.701 451.82 412.146 454.034 413.927 468.864 425.579 479.986 438.868 488.508 455.19L490.531 459.042 491.253 457.357C491.638 456.394 492.697 454.805 493.564 453.794 500.112 446.331 513.16 450.327 532.371 465.734 535.356 468.094 537.812 470.357 537.812 470.694 537.812 471.994 536.945 471.753 534.634 469.827 530.349 466.216 521.73 460.005 517.83 457.646 511.716 453.938 507.816 452.494 503.338 452.253 497.464 451.868 495.008 453.457 492.553 459.042L491.59 461.16 493.756 466.505C494.96 469.394 495.923 472.09 495.923 472.523 495.923 473.342 493.082 474.401 491.542 474.16 489.568 473.871 488.46 471.657 488.508 468.238 488.556 466.601 488.845 464.434 489.182 463.423 489.76 461.738 489.664 461.449 487.208 456.586 482.49 447.197 475.316 437.038 468.094 429.431 458.32 419.127 453.505 415.227 445.512 411.087 435.642 405.983 428.853 403.913 418.935 402.998 413.494 402.468 404.635 402.757 403.431 403.527 402.805 403.864 402.998 404.298 417.683 435.497 425.194 451.434 425.338 451.82 425.29 459.09 425.242 470.597 422.016 477.001 414.553 480.419 411.231 481.96 405.116 482.345 401.072 481.238ZM493.612 472.042C493.756 471.897 493.227 470.116 492.408 468.094 491.108 464.868 490.868 464.579 490.579 465.59 489.616 469.008 490.434 472.331 492.216 472.331 492.842 472.331 493.468 472.186 493.612 472.042ZM372.087 453.553C375.698 451.097 377.576 449.027 378.683 446.138 379.453 444.212 379.453 443.538 378.972 441.323 378.49 439.06 376.853 436.027 374.976 433.764 373.868 432.464 369.728 429.864 367.272 428.901 357.787 425.338 353.261 432.657 358.461 443.201 359.713 445.705 361.446 448.112 363.853 450.664 365.779 452.734 367.368 454.66 367.368 454.949 367.368 456.008 369.246 455.431 372.087 453.553ZM510.079 402.516C511.571 401.024 511.427 396.979 509.693 392.501 506.997 385.568 503.579 382.631 497.897 382.631 495.008 382.583 489.76 383.883 487.882 385.087 487.064 385.616 490.242 392.213 492.986 395.631 498.282 402.372 506.805 405.79 510.079 402.516ZM740.659 398.713C742.488 398.472 744.029 398.183 744.125 398.087 744.27 397.99 743.499 395.294 742.488 392.164 741.429 388.89 740.033 383.016 739.311 378.683 737.433 367.513 734.977 362.265 728.574 355.957 724.385 351.816 720.244 349.794 715.718 349.794 712.926 349.794 711.963 350.035 710.133 351.094 701.563 356.102 701.466 371.75 709.94 384.461 712.685 388.601 715.863 391.731 720.051 394.524 723.181 396.594 726.022 397.653 730.162 398.424 734.255 399.194 736.374 399.242 740.659 398.713Z" fill="#000000" fill-rule="nonzero" fill-opacity="1" transform="matrix(1 0 0 -1.004 288.247 771.104)"/><path d="M406.079 270.495C402.324 263.032 403.768 256.291 409.931 253.162 411.375 252.391 413.157 252.054 416.72 251.862 422.257 251.524 423.653 250.899 425.098 248.01 426.253 245.795 426.831 241.895 426.349 239.439 426.061 237.899 425.964 237.754 425.531 238.525 424.809 239.825 421.342 241.221 418.886 241.221 415.949 241.221 413.061 239.536 412.483 237.562 411.472 234.095 415.227 230.147 419.512 230.147 422.016 230.147 425.049 231.302 425.483 232.41 425.964 233.662 427.023 233.036 427.361 231.254 428.323 226.536 427.794 225.236 420.716 214.402 418.646 211.177 416.72 207.854 416.479 206.94 415.901 204.773 414.842 195.288 414.938 192.64 414.987 190.377 416.094 188.258 417.153 188.258 417.538 188.258 417.924 188.017 418.02 187.729 418.116 187.44 420.138 186.958 422.498 186.669 426.494 186.188 426.686 186.092 424.905 185.754 423.846 185.562 421.775 185.417 420.331 185.417 413.59 185.321 400.205 183.203 392.694 180.988 382.583 178.051 375.794 172.418 376.853 167.94 378.49 160.91 384.894 141.362 388.505 132.31 392.646 122.007 399.435 108.622 401.264 107.129 401.601 106.888 401.938 106.455 401.987 106.166 402.035 105.925 403.383 103.951 405.068 101.881 410.075 95.4772 416.286 91.0476 422.449 89.5069 425.531 88.7365 431.453 89.218 434.823 90.4698 438.29 91.7698 443.731 95.092 443.538 95.8143 443.49 96.1031 443.586 96.2476 443.827 96.1031 444.068 95.9587 445.223 96.6328 446.379 97.5957 453.12 103.277 461.738 114.207 468.479 125.57 470.164 128.41 471.031 129.373 473.005 130.481 478.06 133.37 483.212 132.744 486.679 128.796 492.938 121.718 488.46 111.173 479.168 111.173 475.894 111.125 474.642 111.607 472.138 113.581 470.79 114.64 470.068 114.929 469.731 114.592 468.96 113.822 469.875 112.666 472.571 110.981 477.338 108.044 484.223 109.007 488.027 113.244 490.386 115.844 491.253 118.107 491.253 121.573 491.301 124.992 490.049 128.073 487.786 130.384 484.127 133.996 479.697 134.862 473.823 133.081L472.62 132.744 473.871 134.862C475.412 137.51 484.271 155.181 486.101 159.321 487.016 161.392 487.305 162.499 486.919 162.595 486.534 162.74 486.631 163.269 487.305 164.329 488.364 166.158 488.508 168.999 487.545 170.877 485.186 175.355 477.386 179.303 465.012 182.192 457.453 183.973 450.471 184.888 438.146 185.658 435.642 185.803 432.464 186.332 431.164 186.814 429.816 187.295 426.735 187.921 424.279 188.21 419.127 188.836 417.731 189.366 417.009 191.003 416.431 192.254 416.286 195.143 416.768 195.625 416.961 195.769 417.924 195.48 418.935 194.951 423.268 192.784 426.975 193.362 428.949 196.588 430.972 199.862 430.057 203.569 426.831 205.11 423.942 206.506 421.246 206.362 419.32 204.773L417.779 203.425 418.02 205.495C418.261 206.988 419.464 209.347 422.642 214.162 428.468 223.021 429.19 224.465 429.383 227.98 429.527 230.243 429.335 231.495 428.516 233.373 427.601 235.539 427.553 236.117 427.986 238.621 428.949 243.869 427.264 249.599 424.086 251.958 422.738 252.969 421.727 253.162 417.779 253.402 411.953 253.787 409.401 254.799 407.379 257.639 406.079 259.421 405.887 260.047 405.887 262.839 405.887 265.439 406.175 266.595 407.331 268.906 408.824 271.939 409.064 273.239 408.294 273.721 408.053 273.865 407.042 272.421 406.079 270.495ZM423.027 238.284C423.942 237.754 424.857 236.936 425.098 236.502 426.253 234.432 421.824 231.206 418.646 231.784 416.816 232.121 414.649 234.095 414.264 235.78 413.446 238.862 419.368 240.547 423.027 238.284ZM426.783 203.136C427.794 202.366 428.035 201.74 428.035 200.103 428.035 196.01 424.423 194.277 420.379 196.347 417.924 197.599 417.346 198.706 418.212 200.777 418.598 201.74 419.512 202.847 420.235 203.328 422.064 204.436 425.194 204.388 426.783 203.136ZM434.486 183.01C435.257 182.48 436.509 181.18 437.231 180.073 440.938 174.584 441.805 168.036 439.542 163.221 438.386 160.766 433.186 154.41 431.453 153.351 429.768 152.34 413.253 153.64 403.816 155.518 396.016 157.058 387.205 160.092 383.739 162.403 379.887 164.955 378.683 166.543 378.683 169.095 378.683 170.829 378.972 171.31 381.187 173.332 387.59 179.206 406.898 183.636 427.312 183.877 432.272 183.925 433.283 183.78 434.486 183.01ZM443.923 183.443C467.034 181.662 484.079 175.98 486.294 169.24 488.605 162.162 472.09 155.229 449.22 153.544 445.368 153.255 440.457 152.869 438.242 152.677 436.027 152.484 434.149 152.484 434.005 152.677 433.909 152.869 434.968 154.314 436.364 155.855 439.783 159.562 441.323 162.066 442.335 165.629 443.009 168.181 443.057 168.999 442.527 171.551 441.757 175.355 440.312 178.773 438.29 181.662 437.423 182.914 436.846 183.925 437.086 183.925 437.279 183.925 440.36 183.684 443.923 183.443ZM386.627 158.792C392.453 156.144 401.264 153.881 411.905 152.292 416.624 151.57 420.716 151.425 434.294 151.425 449.123 151.473 451.627 151.57 457.646 152.532 469.008 154.362 478.734 157.347 483.019 160.381 483.79 160.958 484.56 161.295 484.656 161.151 484.994 160.814 476.664 143.625 472.523 136.114 458.271 110.307 445.272 95.6698 432.898 91.7217 430.972 91.0958 429.238 90.9513 425.916 91.0958 422.112 91.2402 421.101 91.5291 418.212 92.9254 414.505 94.755 408.727 99.9068 405.405 104.336 404.25 105.877 403.046 107.37 402.757 107.61 402.42 107.899 402.179 108.188 402.179 108.333 402.227 108.477 401.264 110.21 400.109 112.185 396.738 117.914 391.731 128.747 388.89 136.258 386.435 142.807 381.379 157.925 380.657 160.958L380.32 162.355 382.39 161.055C383.546 160.381 385.424 159.321 386.627 158.792Z" fill="#324A5F" fill-rule="nonzero" fill-opacity="1" transform="matrix(1 0 0 -1.004 288.247 771.104)"/></g></g></g></svg>