<?xml version="1.0" standalone="no"?>
<!DOCTYPE svg PUBLIC "-//W3C//DTD SVG 20010904//EN"
 "http://www.w3.org/TR/2001/REC-SVG-20010904/DTD/svg10.dtd">
<svg version="1.0" xmlns="http://www.w3.org/2000/svg"
 width="1808.000000pt" height="1130.000000pt" viewBox="0 0 1808.000000 1130.000000"
 preserveAspectRatio="xMidYMid meet">
<metadata>
Created by potrace 1.15, written by Peter Selinger 2001-2017
</metadata>
<g transform="translate(0.000000,1130.000000) scale(0.100000,-0.100000)"
fill="#ffffff" stroke="none">
<path d="M17565 11198 c-2847 -2615 -5224 -4335 -7035 -5088 -1765 -734 -3025
-588 -3800 441 -201 267 -404 669 -516 1019 -37 118 -202 410 -350 621 -236
336 -558 664 -864 880 -223 158 -492 307 -731 405 -890 366 -1995 437 -3314
214 -396 -67 -918 -181 -945 -206 -12 -12 -12 -14 7 -14 11 0 106 20 209 44
920 216 1769 307 2479 266 990 -57 1785 -334 2430 -846 136 -108 423 -394 532
-529 248 -309 444 -635 533 -885 385 -1083 997 -1685 1885 -1854 166 -31 276
-40 500 -40 318 0 592 34 925 115 1931 468 4525 2203 7922 5297 153 139 278
255 278 258 0 2 -8 4 -17 4 -10 0 -67 -46 -128 -102z"/>
<path d="M1625 9584 c-301 -19 -639 -56 -953 -104 -216 -34 -651 -116 -660
-125 -3 -3 -1 -9 4 -14 5 -5 69 3 154 20 223 46 584 105 805 133 2445 307
4013 -386 4746 -2096 116 -272 286 -836 305 -1018 17 -158 111 -454 209 -655
100 -207 210 -363 368 -524 352 -357 821 -559 1482 -638 210 -24 755 -24 1010
0 1652 162 3761 883 6615 2262 874 422 2361 1194 2368 1229 2 9 2 16 0 16 -2
0 -119 -61 -259 -136 -140 -75 -366 -195 -504 -266 -137 -72 -310 -162 -383
-200 -221 -115 -1130 -568 -1412 -703 -2336 -1119 -4198 -1797 -5685 -2069
-430 -79 -766 -115 -1150 -123 -515 -11 -879 35 -1250 158 -567 188 -967 544
-1206 1073 -56 124 -134 362 -154 471 -102 555 -229 949 -442 1375 -187 374
-363 620 -648 906 -273 273 -532 458 -870 620 -439 211 -899 331 -1505 395
-101 10 -861 20 -985 13z"/>
<path d="M713 5330 c-191 -19 -391 -62 -585 -126 -100 -33 -128 -48 -115 -60
3 -3 62 13 132 36 293 95 480 125 785 124 258 0 365 -13 605 -74 860 -218
1722 -916 2584 -2090 70 -96 140 -198 154 -225 13 -28 56 -97 94 -155 453
-683 1134 -1104 2063 -1274 297 -54 523 -75 890 -83 1449 -29 3308 398 5650
1299 1272 489 2813 1180 4310 1934 509 256 563 285 553 295 -6 6 -264 -117
-699 -333 -3672 -1830 -6545 -2857 -8689 -3108 -608 -71 -1215 -79 -1690 -24
-725 84 -1305 303 -1785 674 -133 103 -360 334 -462 470 -102 137 -178 253
-178 272 0 15 -126 194 -283 402 -531 707 -1083 1245 -1633 1591 -137 87 -415
228 -559 284 -191 74 -428 135 -625 161 -117 15 -406 21 -517 10z"/>
</g>
</svg>
