<svg id="svg" version="1.1" xmlns="http://www.w3.org/2000/svg" xmlns:xlink="http://www.w3.org/1999/xlink" width="400" height="400" viewBox="0, 0, 400,400"><g id="svgg"><path id="path0" d="M98.000 72.800 C 98.000 73.020,97.280 73.200,96.400 73.200 C 95.520 73.200,94.799 73.335,94.797 73.500 C 94.793 73.839,92.874 74.800,92.200 74.800 C 91.526 74.800,89.607 75.761,89.603 76.100 C 89.601 76.265,89.262 76.400,88.849 76.400 C 88.436 76.400,87.874 76.670,87.600 77.000 C 87.326 77.330,86.836 77.600,86.512 77.600 C 86.187 77.600,85.417 78.140,84.800 78.800 C 84.183 79.460,83.477 80.000,83.229 80.000 C 82.643 80.000,79.200 83.443,79.200 84.029 C 79.200 84.277,78.660 84.983,78.000 85.600 C 77.340 86.217,76.800 86.996,76.800 87.332 C 76.800 87.668,76.575 88.188,76.300 88.487 C 75.518 89.337,74.800 90.730,74.800 91.395 C 74.800 91.728,74.620 92.000,74.400 92.000 C 74.180 92.000,74.000 92.551,74.000 93.224 C 74.000 93.937,73.833 94.344,73.600 94.200 C 73.380 94.064,73.200 94.323,73.200 94.776 C 73.200 95.229,73.020 95.600,72.800 95.600 C 72.580 95.600,72.400 96.320,72.400 97.200 C 72.400 98.080,72.220 98.800,72.000 98.800 C 71.734 98.800,71.600 132.933,71.600 200.400 C 71.600 267.867,71.734 302.000,72.000 302.000 C 72.220 302.000,72.400 302.720,72.400 303.600 C 72.400 304.480,72.580 305.200,72.800 305.200 C 73.020 305.200,73.200 305.470,73.200 305.800 C 73.200 306.130,73.380 306.400,73.600 306.400 C 73.820 306.400,74.000 306.940,74.000 307.600 C 74.000 308.260,74.180 308.800,74.400 308.800 C 74.620 308.800,74.800 309.072,74.800 309.405 C 74.800 310.110,75.509 311.428,76.486 312.540 C 76.864 312.970,77.070 313.487,76.944 313.690 C 76.819 313.893,77.275 314.522,77.958 315.087 C 78.641 315.653,79.200 316.322,79.200 316.573 C 79.200 317.087,82.848 320.800,83.353 320.800 C 83.532 320.800,84.183 321.340,84.800 322.000 C 85.417 322.660,86.111 323.200,86.343 323.200 C 86.575 323.200,87.428 323.650,88.238 324.200 C 89.049 324.750,90.047 325.200,90.456 325.200 C 90.865 325.200,91.200 325.380,91.200 325.600 C 91.200 325.820,91.560 326.000,92.000 326.000 C 92.440 326.000,92.800 326.180,92.800 326.400 C 92.800 326.620,93.250 326.800,93.800 326.800 C 94.350 326.800,94.800 326.980,94.800 327.200 C 94.800 327.420,95.520 327.600,96.400 327.600 C 97.280 327.600,98.000 327.780,98.000 328.000 C 98.000 328.233,99.333 328.400,101.200 328.400 C 103.067 328.400,104.400 328.567,104.400 328.800 C 104.400 329.064,120.400 329.200,151.600 329.200 L 198.800 329.200 198.800 303.800 C 198.800 287.133,198.938 278.400,199.200 278.400 C 199.462 278.400,199.600 271.133,199.600 257.400 L 199.600 236.400 187.000 236.400 C 178.867 236.400,174.400 236.258,174.400 236.000 C 174.400 235.780,174.032 235.600,173.582 235.600 C 172.621 235.600,170.800 233.910,170.800 233.018 C 170.800 232.678,170.620 232.400,170.400 232.400 C 170.140 232.400,170.000 226.800,170.000 216.400 C 170.000 206.000,170.140 200.400,170.400 200.400 C 170.620 200.400,170.800 200.117,170.800 199.771 C 170.800 199.426,171.032 198.931,171.315 198.671 C 172.855 197.263,173.493 197.200,186.195 197.200 L 198.800 197.200 198.800 181.200 C 198.800 170.800,198.940 165.200,199.200 165.200 C 199.438 165.200,199.600 163.675,199.600 161.424 C 199.600 159.337,199.779 157.537,200.000 157.400 C 200.220 157.264,200.400 156.364,200.400 155.400 C 200.400 154.436,200.580 153.536,200.800 153.400 C 201.020 153.264,201.200 152.533,201.200 151.776 C 201.200 151.019,201.380 150.400,201.600 150.400 C 201.820 150.400,202.000 149.860,202.000 149.200 C 202.000 148.540,202.180 148.000,202.400 148.000 C 202.620 148.000,202.800 147.460,202.800 146.800 C 202.800 146.140,202.980 145.600,203.200 145.600 C 203.420 145.600,203.600 145.240,203.600 144.800 C 203.600 144.360,203.780 144.000,204.000 144.000 C 204.220 144.000,204.400 143.526,204.400 142.947 C 204.400 142.368,204.716 141.603,205.103 141.247 C 205.489 140.891,206.074 140.060,206.403 139.400 C 207.279 137.639,208.657 135.524,209.586 134.514 C 210.034 134.027,210.400 133.438,210.400 133.206 C 210.400 132.639,214.662 128.400,215.231 128.400 C 215.477 128.400,216.183 127.860,216.800 127.200 C 217.417 126.540,218.194 126.000,218.527 126.000 C 218.861 126.000,219.193 125.847,219.267 125.661 C 219.340 125.474,220.615 124.745,222.100 124.040 C 223.585 123.336,224.800 122.578,224.800 122.356 C 224.800 122.134,225.000 122.076,225.245 122.228 C 225.489 122.379,225.804 122.344,225.945 122.151 C 226.423 121.493,227.987 120.800,228.995 120.800 C 229.548 120.800,230.000 120.620,230.000 120.400 C 230.000 120.180,230.720 120.000,231.600 120.000 C 232.480 120.000,233.200 119.820,233.200 119.600 C 233.200 119.380,233.920 119.200,234.800 119.200 C 235.680 119.200,236.400 119.020,236.400 118.800 C 236.400 118.574,237.533 118.400,239.000 118.400 C 240.467 118.400,241.600 118.226,241.600 118.000 C 241.600 117.740,247.133 117.600,257.400 117.600 C 267.667 117.600,273.200 117.740,273.200 118.000 C 273.200 118.220,273.478 118.400,273.818 118.400 C 274.158 118.400,274.923 118.887,275.518 119.481 L 276.600 120.563 276.723 133.581 C 276.864 148.462,276.856 148.546,275.042 150.527 L 273.692 152.000 262.446 152.000 C 255.215 152.000,251.200 152.143,251.200 152.400 C 251.200 152.620,250.480 152.800,249.600 152.800 C 248.720 152.800,248.000 152.980,248.000 153.200 C 248.000 153.420,247.460 153.600,246.800 153.600 C 246.140 153.600,245.600 153.780,245.600 154.000 C 245.600 154.220,245.240 154.400,244.800 154.400 C 244.360 154.400,244.000 154.580,244.000 154.800 C 244.000 155.020,243.814 155.200,243.587 155.200 C 243.049 155.200,240.400 157.849,240.400 158.387 C 240.400 158.614,240.220 158.800,240.000 158.800 C 239.780 158.800,239.600 159.160,239.600 159.600 C 239.600 160.040,239.420 160.400,239.200 160.400 C 238.980 160.400,238.800 160.940,238.800 161.600 C 238.800 162.260,238.620 162.800,238.400 162.800 C 238.178 162.800,238.000 163.867,238.000 165.200 C 238.000 166.533,237.822 167.600,237.600 167.600 C 237.341 167.600,237.200 172.800,237.200 182.400 L 237.200 197.200 256.467 197.200 C 267.063 197.200,275.629 197.304,275.503 197.431 C 275.376 197.558,275.796 198.162,276.436 198.774 C 277.604 199.891,278.330 208.400,277.256 208.400 C 277.067 208.400,276.877 209.874,276.834 211.675 C 276.790 213.476,276.642 215.131,276.505 215.353 C 276.368 215.576,276.193 216.847,276.118 218.179 C 276.042 219.510,275.859 221.050,275.711 221.600 C 275.359 222.911,275.381 222.712,275.015 227.900 C 274.840 230.375,274.540 232.400,274.349 232.400 C 274.157 232.400,274.000 232.678,274.000 233.018 C 274.000 233.990,272.141 235.600,271.018 235.600 C 270.458 235.600,270.000 235.780,270.000 236.000 C 270.000 236.260,264.400 236.400,254.000 236.400 L 238.000 236.400 238.000 249.600 C 238.000 258.133,237.859 262.800,237.600 262.800 C 237.337 262.800,237.200 274.133,237.200 296.000 L 237.200 329.200 266.000 329.200 C 284.933 329.200,294.800 329.063,294.800 328.800 C 294.800 328.567,296.133 328.400,298.000 328.400 C 299.867 328.400,301.200 328.233,301.200 328.000 C 301.200 327.780,301.920 327.600,302.800 327.600 C 303.680 327.600,304.400 327.420,304.400 327.200 C 304.400 326.980,304.839 326.800,305.376 326.800 C 305.913 326.800,306.464 326.620,306.600 326.400 C 306.736 326.180,307.197 326.000,307.624 326.000 C 308.051 326.000,308.400 325.840,308.400 325.643 C 308.400 325.447,308.817 325.182,309.326 325.054 C 309.836 324.926,310.673 324.457,311.187 324.011 C 311.702 323.565,312.383 323.200,312.701 323.200 C 313.019 323.200,313.783 322.660,314.400 322.000 C 315.017 321.340,315.723 320.800,315.971 320.800 C 316.557 320.800,320.000 317.357,320.000 316.771 C 320.000 316.523,320.540 315.817,321.200 315.200 C 321.860 314.583,322.400 313.791,322.400 313.440 C 322.400 313.088,322.610 312.800,322.867 312.800 C 323.123 312.800,323.222 312.689,323.086 312.552 C 322.950 312.416,323.055 312.062,323.319 311.766 C 324.592 310.341,324.864 309.931,324.669 309.735 C 324.552 309.619,324.804 308.905,325.228 308.150 C 325.653 307.394,326.000 306.421,326.000 305.988 C 326.000 305.555,326.180 305.200,326.400 305.200 C 326.620 305.200,326.800 304.480,326.800 303.600 C 326.800 302.720,326.980 302.000,327.200 302.000 C 327.433 302.000,327.600 300.667,327.600 298.800 C 327.600 296.933,327.767 295.600,328.000 295.600 C 328.266 295.600,328.400 263.600,328.400 200.400 C 328.400 137.200,328.266 105.200,328.000 105.200 C 327.767 105.200,327.600 103.867,327.600 102.000 C 327.600 100.133,327.433 98.800,327.200 98.800 C 326.980 98.800,326.800 98.080,326.800 97.200 C 326.800 96.320,326.620 95.600,326.400 95.600 C 326.180 95.600,326.000 95.268,326.000 94.861 C 326.000 94.455,325.713 93.510,325.361 92.761 C 323.882 89.608,322.983 88.000,322.701 88.000 C 322.535 88.000,322.400 87.712,322.400 87.360 C 322.400 87.009,321.860 86.217,321.200 85.600 C 320.540 84.983,320.000 84.277,320.000 84.029 C 320.000 83.443,316.557 80.000,315.971 80.000 C 315.723 80.000,315.017 79.460,314.400 78.800 C 313.783 78.140,313.013 77.600,312.688 77.600 C 312.364 77.600,311.905 77.367,311.668 77.082 C 311.432 76.797,310.600 76.314,309.819 76.008 C 309.039 75.701,308.400 75.304,308.400 75.125 C 308.400 74.946,307.860 74.800,307.200 74.800 C 306.540 74.800,306.000 74.620,306.000 74.400 C 306.000 74.180,305.640 74.000,305.200 74.000 C 304.760 74.000,304.400 73.820,304.400 73.600 C 304.400 73.380,303.680 73.200,302.800 73.200 C 301.920 73.200,301.200 73.020,301.200 72.800 C 301.200 72.534,267.067 72.400,199.600 72.400 C 132.133 72.400,98.000 72.534,98.000 72.800 " stroke="none" fill="#7c9cbc" fill-rule="evenodd"></path><path id="path1" d="" stroke="none" fill="#809cbc" fill-rule="evenodd"></path><path id="path2" d="" stroke="none" fill="#809cbc" fill-rule="evenodd"></path><path id="path3" d="" stroke="none" fill="#809cbc" fill-rule="evenodd"></path><path id="path4" d="" stroke="none" fill="#809cbc" fill-rule="evenodd"></path></g></svg>